<?xml version="1.0" encoding="UTF-8" standalone="no"?>
<!DOCTYPE svg PUBLIC "-//W3C//DTD SVG 1.1//EN" "http://www.w3.org/Graphics/SVG/1.1/DTD/svg11.dtd">
<svg width="100%" height="100%" viewBox="0 0 29000 29000" version="1.1" xmlns="http://www.w3.org/2000/svg" xmlns:xlink="http://www.w3.org/1999/xlink" xml:space="preserve" xmlns:serif="http://www.serif.com/" style="fill-rule:evenodd;clip-rule:evenodd;stroke-linejoin:round;stroke-miterlimit:2;">
    <rect id="Wody" x="0" y="0" width="29000" height="29000" style="fill:rgb(44,64,114);"/>
    <path id="Złowieckie" d="M3974.38,1170.19L4181.17,1292.85L4251.27,1427.77L4177.67,1592.49L4209.21,1653.81L4344.15,1678.35L4521.15,1797.5L4570.22,1906.14L4547.44,2077.86L4405.49,2235.57L4416,2351.22L4507.13,2414.3L4538.68,2542.21L4468.58,2656.11L4612.28,2796.29L4605.27,2876.89L4470.33,3045.11L4373.94,3069.64L4303.85,2950.49L4205.71,2950.49L4158.39,3064.39L4267.04,3180.04L4293.33,3271.16L4163.65,3381.55L4188.18,3521.73L4330.13,3526.99L4514.14,3383.3L4582.49,3402.58L4580.73,3563.78L4631.56,3612.85L4829.59,3530.49L5047.51,3655.16L5072.29,3845.97L5005.38,3945.1L5094.6,3977.31L5255.69,4026.88L5354.83,4173.08L5339.96,4396.11L5394.48,4500.19L5565.49,4450.63L5788.54,4438.24L5984.33,4502.67L6115.69,4738.08L6113.21,4914.03L6204.91,5023.06L6356.09,5503.81L6475.05,5711.97L6572.94,5627.71L6672.08,5578.15L6928.59,5500.09L7177.67,5543.46L7414.35,5652.49L7530.83,5626.47L7663.43,5514.96L7802.22,5464.16L8016.59,5536.02L8214.86,5813.57L8341.54,5971.4L8422.15,6044.99L8571.11,6036.23L8769.14,5932.85L8972.43,5896.05L9082.83,5992.42L9310.65,6011.7L9415.8,6109.82L9529.71,6185.17L9675.17,6171.15L9764.54,6195.68L9938.04,6164.14L10042.7,6291.84L10135.6,6321.57L10175.3,6434.33L10309.6,6514.6L10384.9,6663.54L10493.6,6717.86L10582.9,6824.75L10651.3,7275.08L10744.2,7348.67L10798.5,7525.65L10945.7,7678.1L11028.1,7769.22L11008,7843.11L10844.4,7886.48L10787.4,7933.56L10755.2,8015.34L10767.6,8116.94L10799.8,8238.37L10891.5,8375.9L10954.7,8456.44L11017.9,8483.7L10970.8,8574.15L10885.2,8620.82L10755.2,8623.45L10566.3,8637.47L10453.3,8593.66L10363.9,8439.46L10253.5,8318.55L10188.6,8237.95L10064.2,8180.12L9895.98,8176.62L9729.49,8270.37L9686.56,8326.44L9558.63,8333.45L9419.31,8354.48L9251.07,8350.97L9209.31,8370.32L9186.38,8425.46L9183.29,8457.68L9156.02,8511.57L9165.32,8601.54L9129.03,8677.19L9010.08,8817.6L8937.31,8943.26L8937.31,9026.56L9031.49,9111.89L8937.31,9158.97L8709.3,9161.45L8445.35,9224.64L8259.47,9230.84L7831.57,9355.89L7775.61,9390.47L7748.93,9347.31L7589.08,9347.31L7509.77,9393.15L7442.85,9379.52L7342.48,9425.36L7252.02,9410.5L7203.69,9448.91L7030.2,9435.28L7002.94,9462.53L6929.92,9450.52L6846.68,9490.82L6670.56,9494.32L6589.94,9539.01L6494.43,9520.61L6386.66,9554.78L6305.28,9555.46L6223.49,9549.27L6196.23,9598.83L6139.23,9638.48L5955.83,9626.09L5906.26,9612.46L5805.89,9637.24L5769.95,9602.55L5648.59,9606.56L5585.32,9609.98L5478.75,9619.89L5421.74,9574.05L5380.85,9596.35L5315.17,9588.92L5190.02,9567.85L5140.45,9576.53L5041.31,9503.42L4970.68,9499.71L4793.66,9386.56L4726.19,9274.41L4699.9,9191.18L4723.56,9168.4L4667.48,9058.01L4716.55,8959.88L4695.52,8933.6L4652.59,8944.99L4636.81,8912.57L4656.09,8901.18L4661.35,8872.27L4648.2,8837.22L4667.48,8801.3L4706.91,8753.11L4740.21,8668.13L4697.28,8634.84L4694.65,8604.17L4661.35,8562.12L4636.81,8560.37L4600.01,8522.69L4600.89,8485.89L4515.89,8481.51L4549.36,8373.42L4560.51,8305.27L4570.42,8218.54L4592.73,8145.44L4648.49,8036.4L4639.82,7964.54L4611.32,7877.81L4569.19,7856.74L4460.14,7786.12L4403.13,7777.44L4269.3,7824.53L4183.8,7815.65L4157.51,7829.67L4156.64,7866.47L4139.99,7898.89L4123.34,7965.47L4128.6,8013.66L4097.05,8054.84L4163.65,8077.62L4148.75,8154.72L4204.83,8183.63L4145.25,8199.4L4076.02,8124.93L4047.11,8208.16L4047.98,8253.72L4016.44,8272.12L3935.83,8236.2L3893.77,8224.81L3863.1,8238.83L3822.79,8228.31L3761.45,8194.14L3728.16,8257.22L3666.82,8309.79L3581.83,8349.22L3476.68,8387.77L3390.72,8352.98L3364.7,8369.7L3315.75,8370.32L3248.22,8339.97L3210.42,8335.63L3142.88,8286.07L3095.18,8267.48L3005.34,8204.29L2976.21,8217.92L2887.61,8175.8L2759.92,8082.87L2659.15,8020.67L2629.36,7970.73L2589.93,7926.92L2516.33,7917.28L2399.37,7825.15L2360.96,7805.94L2288.47,7779.3L2210.4,7744.61L2091.44,7656.02L2072.23,7613.27L2086.48,7527.16L2106.31,7478.22L2055.43,7447.68L1992.77,7391.61L1947.65,7405.19L1929.9,7412.63L1912.16,7420.08L1875.8,7448.99L1851.26,7484.91L1817.09,7520.83L1793.43,7516.02L1693.54,7472.21L1678.64,7492.36L1626.07,7540.55L1521.8,7564.2L1441.18,7529.16L1373.71,7459.07L1357.94,7396.86L1368.46,7313.63L1145.89,7208.49L1031.98,7129.64L949.616,7042.9L917.195,6830.88L914.567,6725.74L939.978,6659.16L944.359,6586.44L942.606,6453.27L958.378,6413.84L961.883,6268.4L931.215,6172.9L897.042,6119.46L821.686,6042.36L765.607,6027.47L712.156,5945.99L635.924,5910.94L610.513,5773.39L651.696,5688.4L667.468,5597.29L593.865,5595.53L564.949,5505.29L545.672,5408.92L477.325,5373L408.979,5382.63L345.014,5350.22L178.529,5296.77L0.004,5316.05L0.004,3227.35L68.123,3260.64L110.183,3385.05L227.598,3518.22L250.38,3619.86L348.519,3653.15L457.172,3886.2L576.534,3837.14L823.438,3796.83L932.091,3737.26L1119.61,3726.74L1170.43,3798.59L1151.15,3930.01L1074.04,4061.43L1017.96,4129.76L1140.63,4278.71L1251.04,4376.83L1305.37,4350.55L1305.37,4234.9L1440.25,4144.58L1431.57,3718.36L1561.68,3644.01L1611.25,3491.61L1735.17,3465.59L1869,3448.24L1969.38,3383.81L2113.12,3357.8L2184.99,3206.63L2158.97,3088.92L2218.41,2936.47L2192.12,2852.36L2213.15,2792.79L2274.48,2736.71L2270.98,2626.32L2155.32,2568.5L2037.9,2536.96L2076.45,2433.57L2207.89,2356.47L2228.92,2289.89L2162.33,2204.03L2179.85,2025.3L2078.21,1883.36L2099.24,1727.41L2221.91,1657.32L2290.26,1650.31L2314.79,1606.5L2274.48,1541.67L2074.7,1476.84L2023.88,1322.64L2006.36,1206.99L2046.66,1003.72L2221.91,856.534L2381.38,803.966L2584.67,732.123L2949.18,821.489L3066.6,931.882L3264.63,1010.73L3324.21,1100.1L3304.94,1199.98L3299.68,1313.88L3339.11,1357.68L3466.16,1375.2L3519.61,1462.82L3564.3,1541.67L3626.51,1558.32L3648.42,1433.9L3711.51,1321.76L3798.26,1216.62L3874.49,1178.95L3964.74,1169.31L3974.38,1170.19Z" style="fill:rgb(18,18,18);"/>
    <path id="Zasiedmiogórskie" d="M5939.72,17495.2L6504.79,17391.1L6916.2,17420.9L7198.73,17515L7173.95,17688.5L7119.42,17797.5L7307.78,18164.3L7342.48,18327.8L7421.78,18650L7456.48,18751.6L7669.62,18853.2L7815.84,18890.4L7884,18956L7943.48,19101L7978.18,19259.6L7949.68,19377.3L8152.27,19607.5L8288.96,19770.5L8380.09,20007L8554.4,20183.9L8623.79,20278.1L8704.34,20281.8L8812.15,20342.5L8879.06,20456.5L8900.13,20496.2L9012.9,20554.4L9161.6,20548.2L9268.17,20447.8L9405.72,20385.9L9563.09,20348.7L9670.9,20368.5L9784.91,20449.1L9839.43,20534.6L9838.19,20628.7L9880.33,20721.7L9898.91,20766.3L9895.19,20908.8L9946,21000.4L10001.8,21232.1L10009.2,21302.8L9903.87,21357.3L9741.54,21352.3L9637.44,21435.3L9542.03,21570.4L9492.46,21685.6L9488.74,21761.2L9513.53,21821.9L9569.29,21887.6L9610.18,21932.2L9673.38,21961.9L9742.77,21964.4L9804.73,21959.5L9825.8,22125.5L9822.08,22310.1L9866.69,22513.3L9861.74,22602.5L9890.24,22680.6L9862.98,22756.2L9959.63,22716.5L10025.3,22663.2L10107.1,22632.3L10198.8,22575.3L10217.4,22496L10309.1,22534.4L10294.2,22551.7L10382.2,22575.3L10472.7,22619.9L10457.8,22665.7L10537.1,22707.8L10653.6,22772.3L10878.2,22803.6L10987.8,22842.2L11092.9,22814.1L11269.9,22814.1L11464.4,22782.6L11573.1,22737L11613.4,22821.2L11725.6,22810.6L11828.1,22707.8L11970,22720.8L12039.6,22720.8L12056.9,22772.3L12172,22772.3L12202,22880.8L12280.3,22869.2L12343.6,22959.4L12291.6,23113.8L12232,23220.7L12153.2,23276.7L12069,23325.8L11988.4,23367.9L11958.6,23430.9L11886.8,23450.2L11962.1,23555.4L11963.9,23697.3L12007.7,23937.3L11948.1,24081L11907.8,24247.5L11779.9,24473.5L11648.4,24620.7L11590.6,24664.5L11574.8,24776.7L11588.9,24843.3L11510,24822.2L11460.9,24874.8L11401.3,24894.1L11320.7,24871.3L11231.4,24979.9L11119.5,25100.4L11035.2,25158.7L10943.5,25262.7L10921.2,25338.3L10929.9,25470.9L10897.7,25521.7L10922.5,25604.7L10917.5,25675.3L10891.5,25724.9L10934.9,25798L10986.9,25841.4L10995,25886.6L10959.7,25925L10970.2,25964.6L10916.3,26008L10882.8,25978.9L10846.9,25973.9L10774.4,25900.8L10725.4,25860.6L10688.9,25823.4L10648.6,25835.2L10633.7,25906.4L10600.3,25949.8L10507.4,26026L10395.8,25944.2L10258.3,25905.8L10141.3,25912.1L10050.2,25952.4L9997.62,26066.3L9978.34,26201.3L9890.72,26295.9L9789.08,26429.1L9773.3,26737.5L9662.9,26814.6L9538.47,26905.7L9478.89,27024.8L9445.99,27320.2L9433.32,27419.1L9338.69,27541.8L9338.69,27652.1L9382.5,27795.8L9454.35,27932.5L9655.89,27906.2L9818.87,27881.7L9967.83,27860.7L10051.9,27876.4L10136.2,28010.9L10150.5,28101.4L10126.3,28188.1L10093.5,28242L10112.1,28360.3L10098.4,28403.1L10125.1,28490.4L10118.9,28580.9L10195.7,28668.2L10188.3,28838.6L10244,28911.7L10333.2,28950.7L10333.2,29000L633.296,29000L637.677,28912L569.331,28828.8L566.702,28700.9L605.257,28657.9L597.371,28528.3L656.078,28456.4L777.875,28435.4L943.334,28465.6L1009.01,28383.9L1070.97,28308.3L1183.74,28203L1224.63,28077.8L1265.52,27929.1L1287.83,27800.3L1354.74,27727.2L1500.97,27683.8L1636.04,27685L1662.06,27641.7L1785.55,27648.6L1987.08,27688.9L2081.71,27625.9L2242.94,27561L2490.04,27496.2L2832.79,27588L3031.15,27652.1L3150.32,27619.4L3281.67,27541.3L3432.85,27452.1L3595.85,27448.9L3783.36,27461.1L4149.72,27551.1L4361,27419.9L4527.05,27437.2L4616.28,27524L4732.76,27410L4750.11,27320.8L5064.86,27315.8L5131.78,27152.3L5275.52,27030.8L5268.09,26946.6L5466.36,26837.5L5665.52,26497.4L5700.57,26369.5L5828.49,26253.8L5828.49,26073.4L5707.57,25954.2L5653.25,25970L5500.78,25740.4L5506.04,25363.7L5430.68,25286.6L5073.18,25246.3L4848.86,25036L4742.67,24775.8L4650.97,24795.6L4670.8,24468.5L4722.85,24295L4745.15,24121.6L4655.93,24081.9L4586.53,24000.2L4470.05,24020L4517.14,24131.5L4484.92,24233.1L4358.52,24319.8L4170.17,24354.5L4110.69,24433.8L4001.64,24537.9L3986.77,24654.4L3835.59,24721.3L3595.19,24634.5L3432.87,24680.3L3219.07,24820.5L3021.04,24808.2L2907.13,24748.6L2903.62,24575.2L2716.11,24385.9L2619.72,24261.5L2614.46,24142.4L2234.18,23697.3L2176.35,23376.6L2158.82,23206.6L2221.91,23143.6L2339.33,23140.1L2411.18,23208.4L2465.5,23178.6L2483.03,23082.2L2486.53,22950.8L2584.67,22912.3L2747.59,22974.2L2922.9,22915.8L3082.16,22965.6L3182.54,22935.8L3294.07,22974.2L3367.18,22959.4L3367.18,22803.2L3686.89,22803.2L3753.8,22750L3751.32,22679.3L3730.26,22592.6L3771.1,22500.5L3820.16,22488.2L3827.17,22428.6L3902.53,22404.1L3911.29,22283.2L4032.21,22197.3L4158.39,22213.1L4275.81,22095.7L4403.74,22109.7L4466.83,22204.4C4466.83,22204.4 4582.49,22153.5 4594.76,22148.3C4607.02,22143 4678.88,21853.9 4678.88,21853.9L4638.57,21733L4529.91,21676.9L4479.09,21606.8L4303.85,21575.3L4065.51,21426.3L4074.27,21286.2L3995.41,21203.8L4042.73,21051.4L3956.86,21091.7L3878,21074.1L3783.36,21202.1L3497.71,21126.7L3502.97,20746.5L3784.24,20510.8L3707.13,20398.6L3764.09,20289.1L3658.94,20151.6L3473.18,20064L3194.53,20035.9L3056.96,19885.2L3003.51,19757.3L2939.55,19646L2992.12,19435.8L2968.46,19308.7L3079.74,19175.6L3189.28,19165.9L3281.28,19233.4L3332.1,19298.2L3339.11,19369.2L3321.59,19430.5L3362.77,19549.7L3458.28,19653.1L3488.07,19677.6L3708.01,19507.6L4118.12,19522.3L4277.98,19390.9L4258.15,19246L4156.54,19003.1L4156.54,18840.8L4030.14,18678.5L4047.49,18601.7L4177.6,18512.5L4406.85,18363.8L4736.48,18264.6L4892.68,18212.7L5150.29,18232L5295.74,18242.5L5420.17,18149.6L5383.37,17988.4L5435.94,17927.1L5669.02,17790.4L5651.5,17667.7L5719.84,17587.1L5939.72,17495.2L5939.72,17495.2Z" style="fill:rgb(126,45,181);"/>
    <path id="Wielkokabaczckie" d="M6905.66,10981.6L6887.07,11030.9L6905.66,11091.4L6939.37,11108.2L7027.31,11125.3L7175.1,11166.9L7284.23,11217L7258.21,11302.5L7188.81,11373.1L7190.05,11437.6L7214.84,11544.1L7285.47,11651.9L7399.47,11592.4L7565.53,11540.4L7711.75,11580.1L7877.8,11617.2L7984.37,11684.1L8128.11,11763.4L8165.29,11763.4L8165.29,11885.3L8317,11885.3L8317,12155.1L8368.26,12206.4L8395.86,12206.4L8475.81,12286.3L8546.57,12286.3L8600.66,12319.8L8653.28,12263.2L8701.28,12214L8701.28,12000.1L8838.17,12057.1L8881.71,12211.3L8948.45,12312.3L9003.53,12552.9L9057.42,12633.9L9094.68,12726.2L9165.31,12729.9L9306.58,12708.8L9413.6,12637.5L9568.26,12576.1L9767.56,12625.8L10119.5,12504.4L10529.5,12433.8L10599.6,12575.7L10603.1,12643.1L10648.6,12694L10661,12804.8L10688.3,12856.3L10715.5,12907.7L10793.6,12982.6L10894,13105.9L10971.4,13164.8L11090.4,13230.5L11131.3,13349.4L11131.9,13463.4L11195.7,13555.7L11328.3,13633.1L11553.2,13681.5L11739.1,13587.3L11828.3,13505.5L12040.2,13439.9L12232,13364.2L12275.8,13373L12271.4,13572.7L12313.5,13704.1L12387.1,13807.5L12498.7,13916.9L12534.7,14008.6L12553.2,14240.3L12599.1,14371.6L12750.5,14371.6L12862,14278.9L12926.9,14276.3L12999.6,14288.5L13022.4,14281.5L13092.5,14308.7L13110,14327.9L13158.2,14356L13181.9,14393.7L13230.9,14432.2L13332.6,14429.6L13464.7,14239L13581.1,14008.6L13588,13856.8L13877.9,13773.8L13960.3,13794.8L14008,13776.9L14122.7,13792.4L14233.6,13788L14363,13774.2L14599.6,13935.4L14842,13929.3L15128.3,13929.3L15179.7,13877.9L15179.7,13767L15206.3,13665.4L15263.3,13496.8L15249.7,13394L15239.8,13236.6L15197.7,13162.3L15058.9,13131.3L15005.6,13086.7L15027.9,12967.8L14959.7,12857.5L14834.6,12793.1L14659.9,12812.9L14550.8,12864.9L14513.6,13003.7L14469,13064.4L14400.9,13059.5L14304.2,12993.8L14108.4,12759.6L13967.1,12680.3L13897.8,12610.9L13704.4,12630.8L13526,12623.3L13456.6,12499.4L13340.1,12375.5L13134.4,12214.4L13025.4,12140.1L13003.1,12060.8L13072.5,11917.1L13184,11815.5L13226.1,11686.6L13444.2,11627.1L13533.4,11498.3L13644.5,11329.8L13693.6,11229.9L13812.7,11159.9L13917.9,10986.4L14075.6,10867.2L14282.4,10883L14189.5,10991.6L14200,11123.1L14268.4,11177.4L14387.6,11149.3L14500,11065.2L14613.6,11088L14603.1,11193.1L14629.4,11328.1L14694.2,11420.9L14624.1,11566.4L14541.8,11568.1L14471.7,11592.7L14273.6,11580.4L14166.7,11626L14159.7,11680.3L14100.1,11718.8L14103.7,11817L14151,11881.8L14159.7,12064L14214.1,12102.6L14336.7,12069.3L14457.7,12009.7L14683.7,11960.6L14676.7,11888.8L14645.2,11780.2L14671.5,11734.6L14876.5,11704.8L14901,11781.9L14997.4,11813.4L15220,11787.2L15428.5,11757.4L15638.8,11669.8L15779,11631.2L15927.1,11596.2L16076.9,11701.3L16297.7,11750.4L16500,12000.1L16663.6,12080.6L16809.8,12100.5L16916.4,12184.7L17080,12177.3L17141.9,12041L17119.6,11934.4L17253.5,11917.1L17350.1,11975.3L17430.7,12012.5L17508.7,11981.5L17531,11913.4L17443.1,11751L17346.4,11681.7L17176.6,11461.1L17144.4,11363.2L17098.6,11306.2L17036.6,11155.1L16941.2,11065.9L16962.3,11011.3L16886.7,10966.7L16887.3,10903.5L16843.3,10851.5L16829.7,10803.2L16772,10692.9L16725,10640.2L16658.7,10606.2L16661.8,10567.8L16586.8,10499.6L16590.5,10449.4L16550.2,10416.6L16478.3,10349.4L16425.7,10314.4L16380.1,10268.8L16362.6,10225L16293.1,10197.3L16227.4,10166.3L16213.8,10218.4L16166.7,10234.5L16055.2,10191.1L16025.4,10116.8L15949.8,10030L15943.6,9940.81L15930,9873.9L15875.5,9875.14L15814.2,9916.03L15808,9971.17L15767.1,9962.49L15751.6,9863.37L15720.6,9856.55L15705.7,9801.42L15626.4,9787.17L15454.8,9683.71L15341.8,9656.41L15319,9622.24L15224.4,9637.14L15189.3,9594.21L15076.3,9608.22L15042.1,9552.15L14906.3,9532L14850.2,9458.41L14769.6,9469.8L14678.5,9420.73L14605.7,9342.76L14438.4,9248.13L14446.3,9185.93L14355.1,9102.69L14367.4,9019.46L14329.7,8955.51L14318.3,8765.39L14262.3,8645.35L14281.5,8428.95L14275.4,8398.28L14228.1,8370.25L14217.6,8204.66L14235.1,8177.5L14167.6,8061.85L14126.4,7929.55L14098.5,7822.05L14056.4,7726.65L14039,7646.11L14045.2,7564.33L13974.6,7488.75L13916.3,7488.75L13871.7,7445.39L13912.6,7343.42L13914.4,7256.69L13829.4,7215.51L13789.1,7113.88L13705,7035.9L13607.7,7010.49L13527.2,6951.01L13438.6,6936.14L13414.9,6873.82L13325.6,6824.75L13254.6,6817.74L13209,6857.17L13223.9,6923.75L13166.1,6978.07L13132.8,7126.14L13006.6,7264.57L12883.9,7366.2L12796.3,7401.25L12622.8,7341.67L12531.7,7238.29L12572,7152.43L12504.9,7072.44L12389,7066.24L12375.4,7016.06L12369.2,6929.95L12294.2,6830.88L12191.7,6761.67L12074.9,6767.63L11969.6,6803.56L11841.9,6865.52L11793,6913.24L11657.2,6932.52L11550.7,6996.85L11464.4,7124.39L11347,7197.98L11278.7,7355.69L11115.7,7441.55L11054.4,7592.24L11078.9,7714.9L11028.1,7769.22L11008,7843.12L11041.4,7861.7L11110.4,7961.97L11165.6,8065.36L11181,8143.77L11162.6,8165.23L11163,8195.9L11186.4,8235.89L11181.5,8365.99L11115.8,8430.42L11017.9,8483.7L10970.8,8574.15L10885.2,8620.82L10755.2,8623.45L10566.3,8637.47L10453.3,8593.66L10363.9,8439.46L10253.5,8318.56L10188.6,8237.95L10064.2,8180.13L9895.97,8176.62L9729.49,8270.37L9686.55,8326.44L9558.62,8333.45L9419.3,8354.48L9251.06,8350.97L9209.3,8370.33L9186.38,8425.47L9183.28,8457.68L9156.02,8511.58L9165.31,8601.55L9129.02,8677.19L9010.07,8817.61L8937.3,8943.26L8937.3,9026.56L9031.48,9111.89L8937.3,9158.98L8709.29,9161.45L8539.52,9202.34L8445.35,9224.64L8259.47,9230.84L7831.56,9355.9L7579.21,9511.85L7506.48,9569.67L7425.5,9590.16L7311.49,9745.66L7183.86,9837.97L7190.67,9956.92L7227.23,10053.6L7226.61,10085.2L7185.1,10160.1L7216.69,10209.1L7223.51,10289L7220.41,10455.6L7177.66,10589.4L7113.05,10672.3L7086.76,10760.3L7007.9,10814.7L6956.2,10925.1L6905.66,10981.6ZM17127.1,12261.5L17133.9,12303L17079.4,12335.3L17081.8,12399.1L17148.1,12431.9L17265.8,12404.6L17309.2,12303L17290,12260.9L17200.8,12209.5L17146.9,12220.6L17127.1,12261.5ZM13661.1,11775.2L13627.6,11800.6L13624.5,11880.5L13658,11914L13675.3,11910.3L13674.1,11984L13703.2,12000.1L13760.8,11983.4L13760.8,11922.7L13787.5,11884.2L13778.2,11808L13743.5,11771.5L13701.3,11756.6L13661.1,11775.2Z" style="fill:rgb(25,129,17);"/>
    <path id="Suchomeskie" d="M13414.9,6873.81L13487.6,6785.32L13443.8,6735.38L13385.1,6617.1L13459.6,6551.39L13543.7,6530.37L13637.5,6610.97L13754.9,6596.08L13829.4,6646.89L13894.2,6605.71L13938,6521.61L13951.2,6430.49L13873.2,6268.4L13883.7,6204.44L13938.9,6112.45L13982,6067.57L14122,6122.09L14258.3,6139.43L14388.4,6105.98L14521,6125.81L14618.9,6132L14647.4,6110.94L14891.4,6010.82L14947.4,5956.5L15017.5,5946.86L15061.3,5887.28L15196.3,5905.68L15223.4,5823.33L15299.7,5813.69L15361,5774.26L15368.9,5752.36L15413.6,5718.19L15464.4,5645.47L15500.3,5642.84L15530.1,5680.52L15568.7,5662.99L15579.3,5612.22L15646.2,5602.93L15687.1,5564.52L15718.7,5558.32L15738.5,5530.45L15809.7,5542.97L15952.5,5462.36L16016.4,5401.03L16119.8,5375.62L16186.4,5363.36L16256.1,5334.01L16338,5283.19L16382.7,5276.18L16404.2,5245.08L16466,5271.8L16507.6,5222.3L16558.4,5211.79L16620.2,5217.92L16706.9,5228.43L16753.4,5189.01L16879.3,5217.48L16979.4,5225.81L17005.7,5260.85L17080.2,5255.59L17185.3,5300.61L17255.9,5404.68L17371.2,5491.42L17403.4,5560.8L17454.2,5667.36L17417,5740.46L17433.1,5776.4L17505,5816.05L17521.1,5913.93L17564.5,5973.4L17588,6133.24L17599.2,6205.1L17646.3,6312.9L17690.9,6319.1L17782.1,6409.46L17883.7,6409.46L17916.4,6439.28L18000.7,6407.07L18072.5,6416.98L18156.8,6471.5L18231.1,6496.28L18268.3,6451.67L18459.2,6451.67L18508.7,6392.2L18601.7,6434.32L18662.4,6400.87L18761.5,6356.27L18824.8,6374.53L18895.3,6317.86L19039.1,6310.42L19159.3,6263.34L19232.4,6221.21L19309.2,6239.8L19377.4,6228.65L19446.1,6220.94L19455.5,6304.23L19524.9,6364.94L19513.5,6505.83L19567.8,6617.98L19517,6800.22L19583.6,6917.62L19627.4,7120.88L19634.4,7308.37L19730.8,7327.65L19892,7304.87L20073.8,7322.72L20135.8,7275.63L20146.9,7152.97L20207.6,7026.59L20310.5,6918.79L20461.6,6803.72L20619.3,6826.5L20729.7,6726.62L20852.4,6653.02L20945.3,6556.65L21018.1,6492.56L21077.6,6550.8L21078.8,6611.51L21180.4,6611.51L21249.2,6680.27L21249.2,6716.83L21295.6,6716.83L21310.2,6741.99L21337.8,6741.99L21375.4,6779.59L21432,6779.59L21517.7,6865.25L21648.9,6865.25L21643.6,6956.17L21719,6953.54L21768,7008.73L21872.3,7047.28L21870.6,7091.09L21947.7,7076.2L22054.6,7107.74L22144,7171.69L22226.3,7190.09L22299.9,7240.03L22247.4,7296.11L22270.1,7406.5L22268.4,7516.89L22233.3,7562.45L22066.8,7564.2L21991.5,7599.25L21812.7,7590.49L21776.8,7544.93L21648,7563.33L21549.9,7530.91L21497.3,7407.37L21387.8,7411.76L21274.7,7489.73L21252.8,7579.1L21226.5,7664.08L21244.1,7727.16L21292.3,7764.84L21315.9,7844.56L21329.9,7966.35L21399.2,8007.53L21421.9,8058.34L21428.1,8154.72L21464,8185.38L21418.4,8272.99L21409.7,8336.95L21473.6,8373.75L21516.2,8429.18L21632.7,8387.05L21719.4,8390.77L21814.9,8503.52L21878.1,8556.8L21896.7,8618.75L21891.7,8823.19L21935.1,8872.75L22011.6,8895.05L22049.3,8832.84L22111.5,8835.47L22206.2,8901.18L22257.9,8896.8L22292.9,8828.46L22406.8,8839.85L22540.9,8885.41L22561.5,8959.49L22530.5,9014L22565.8,9041.26L22546.6,9112.51C22546.6,9112.51 22578.8,9145.34 22581.3,9145.96C22583.8,9146.58 22587.5,9214.11 22587.5,9214.11L22630.9,9226.5L22660.9,9262.15L22652.2,9383.05L22613.6,9416.35L22632.9,9516.23L22603.1,9567.04L22618.9,9645.89L22580.3,9742.27L22600.7,9791.66L22377.5,9883.81L22409.7,10033.7L22401,10101.9L22349,10161.4L22085,10115.5L21941.3,9981.69L21899.1,9898.68L21850.8,9871.42L21703.3,9850.35L21690.9,9806.99L21638.9,9727.69L21597.4,9692.38L21563.9,9598.83L21499.5,9527.58L21496.4,9441.47L21539.1,9266.15L21512.5,9183.75L21441.3,9051.79L21516.2,9033.83L21586.9,9020.2L21569.5,8945.86L21588.1,8922.31L21529.9,8774.87L21441.9,8714.16L21318,8710.44L21257.2,8756.28L21246.1,8834.34L21179.2,8898.77L21170.5,8970.64L21052.8,8995.42L20879.3,8870.27L20847.1,8833.1L20781.4,8870.27L20743,8831.86L20666.1,8877.71L20584.3,8800.43L20562.4,8694.41L20558.8,8581.39L20575.5,8499.03L20552.7,8450.85L20481.7,8522.69L20381.8,8500.79L20217.6,8462.63L20158.1,8396.96L20089.9,8353.59L19997,8384.57L19966,8455.2L19994.5,8530.78L19958.6,8590.25L19823.5,8672.03L19723.1,8681.94L19751.6,8777.35L19745.4,8804.6L19735.5,8896.29L19773.9,9010.29L19762.8,9082.15L19669.5,9142.12L19640.6,9196.44L19562.6,9232.36L19544.2,9287.55L19497.7,9326.98L19408.3,9367.28L19423.2,9469.79L19496,9450.51L19559.9,9486.44L19559.9,9348.88L19800.9,9348.88L19800.9,9556.53L19757.1,9556.53L19809.7,9606.47L19852.6,9672.18L19936.3,9746.27L20001.9,9835.49L20050.3,9881.33L20070.1,9894.96L20068.9,9990.36L20106,10064.7L20135.8,10137.8L20185.3,10171.3L20273.3,10186.1L20360.1,10103.1L20433.2,10103.1L20505,10049.8L20605.4,10023.8L20673.6,10038.7L20760.3,10063.5L20813.6,10142.8L20880.5,10160.1L20890.9,10259.2L20850.6,10329.3L20827.9,10397.6L20787.6,10477.6L20795.6,10520.7L20762.5,10572.4L20737.4,10626.3L20737.4,10673.7L20726.9,10701.9L20758.2,10743.1L20756.6,10782.1L20743.9,10855.8L20726.2,10930.2L20712.2,10961.4L20622.2,11012.9L20481.5,11160L20431.3,11228.8L20284.5,11264.7L20215.1,11298.2L20092.7,11426.2L20087.4,11519.1L20110.2,11586.5L20196.9,11699.9L20128.3,11752.3L20087.4,11815.5L20073.8,11944.3L19979.6,12135.1L19850.8,12239.2L19709.5,12288.8L19531.9,12228.7L19487.2,12288.3L19394.3,12313.7L19109.6,12417.1L18947.4,12412.1L18880.5,12445.5L18768.3,12286.9L18796.8,12199.6L18721.2,12067.6L18758.4,12011.2L18708.9,11881.1L18762.8,11828.5L18638.2,11715.1L18633.3,11658.7L18576.3,11583.8L18361.3,11687.8L18169.4,11706.6L17925.8,11727.6L17887.2,11834.5L17878.4,11926.5L17796.8,11966L17708.8,11955.5L17616.4,11955.4L17519.9,11947.4L17531,11913.4L17443,11751L17346.4,11681.7L17176.6,11461.1L17144.4,11363.2L17098.5,11306.2L17036.6,11155.1L16941.2,11065.8L16962.2,11011.3L16886.6,10966.7L16887.3,10903.5L16843.3,10851.5L16829.6,10803.2L16772,10692.9L16724.9,10640.2L16658.6,10606.2L16661.7,10567.8L16586.7,10499.6L16590.5,10449.4L16550.2,10416.6L16478.2,10349.4L16451.9,10331.9L16425.6,10314.4L16380.1,10268.8L16362.6,10225L16293.1,10197.3L16227.4,10166.3L16276.3,10044.9L16296.2,10019.5L16266.4,9906.73L16197.6,9890.62L16123.3,9776.01L16084.3,9740.7L16024.8,9753.09L15943.6,9710.96L15889.1,9741.94L15900.2,9794.6L15930,9873.89L15875.5,9875.13L15814.1,9916.02L15807.9,9971.16L15767,9962.49L15751.5,9863.36L15720.6,9856.55L15705.7,9801.41L15626.4,9787.16L15442.1,9680.64L15341.7,9656.41L15319,9622.24L15224.3,9637.13L15189.3,9594.2L15076.2,9608.22L15042.1,9552.15L14906.3,9531.99L14850.2,9458.4L14769.6,9469.79L14678.4,9420.73L14605.7,9342.75L14438.3,9248.13L14446.2,9185.92L14355.1,9102.69L14367.4,9019.46L14329.7,8955.5L14318.3,8765.38L14262.2,8645.35L14281.5,8428.94L14275.4,8398.28L14228,8370.24L14217.5,8204.65L14235.1,8177.49L14167.6,8061.84L14126.4,7929.55L14098.5,7822.05L14056.3,7726.64L14039,7646.1L14045.2,7564.33L13974.6,7488.75L13916.3,7488.75L13871.7,7445.38L13912.6,7343.42L13914.4,7256.68L13829.4,7215.5L13789.1,7113.87L13704.9,7035.89L13607.7,7010.49L13527.2,6951L13438.6,6936.14L13414.9,6873.81Z" style="fill:rgb(45,162,160);"/>
    <path id="Somsiedzkie" d="M10467.3,464.026L10262.3,521.851L10181.6,633.996L10062.5,788.195L10125.6,1028.26L10200.9,1065.05L10188.7,1217.5L10015.2,1308.62L9953.83,1399.74L9974.86,1648.56L10078.3,1779.98L10197.4,1788.74L10265.8,1914.9L10265.8,2084.87L10214.9,2211.03L10265.8,2302.15L10255.3,2501.91L10400.7,2515.93L10451.5,2652.61L10395.4,2712.18L10377.9,2889.16L10292.1,2946.99L10292.1,3088.92L10451.5,3302.69L10626.8,3276.41L10691.6,3378.04L10821.3,3406.08L11028.1,3541L11154.3,3696.95L11245.4,3761.79L11068.4,3842.39L11028.1,4001.85L11080.7,4082.45L11255.9,4082.45L11320.8,4154.3L11514.8,4226.36L11599.1,4412.22L11721.8,4510.1L11880.4,4512.58L11970.8,4460.54L11911.4,4292.03L11913.8,4221.4L12108.4,4202.82L12247.2,4124.76L12250.9,3978.55L12273.2,3964.92L12356.2,3978.55L12390.9,4042.98L12471.5,4069L12630.1,4018.2L12688.3,4009.53L12756.5,4080.15L12791.2,4143.34L12928.7,4133.43L12961,4170.6L13172.9,4168.12L13260.8,4130.95L13310.4,4168.12L13315.4,4301.94L13367.4,4403.54L13496.3,4453.1L13623.5,4583.6L13746.2,4664.2L13705.9,4799.13L13756.7,4916.53L13910.9,4983.12L14014.3,4986.62L13977.5,5070.73L13914.4,5221.42L13914.4,5317.8L13825,5435.2L13823.3,5578.89L13839.1,5754.11L13858.3,5917.07L13982,6067.57L14122.1,6122.09L14258.4,6139.43L14388.5,6105.98L14521.1,6125.81L14619,6132L14647.5,6110.94L14891.4,6010.82L14947.5,5956.5L15017.6,5946.86L15061.4,5887.28L15196.3,5905.68L15223.5,5823.33L15299.7,5813.69L15361.1,5774.26L15369,5752.36L15413.6,5718.19L15464.5,5645.47L15500.4,5642.84L15530.2,5680.52L15568.7,5662.99L15579.3,5612.22L15646.3,5602.93L15687.2,5564.52L15718.8,5558.32L15738.6,5530.45L15809.7,5542.97L15952.5,5462.36L16016.5,5401.03L16119.9,5375.62L16186.5,5363.36L16256.1,5334.01L16338.1,5283.19L16382.8,5276.18L16404.2,5245.08L16466,5271.8L16507.6,5222.3L16558.5,5211.79L16620.2,5217.92L16707,5228.43L16753.4,5189.01L16879.4,5217.48L16979.5,5225.81L17005.8,5260.85L17080.2,5255.59L17185.3,5300.61L17256,5404.68L17371.2,5491.42L17454.2,5667.36L17417.1,5740.46L17433.2,5776.4L17505,5816.05L17521.2,5913.93L17564.5,5973.4L17599.2,6205.1L17646.3,6312.9L17690.9,6319.1L17782.1,6409.46L17883.8,6409.46L17916.5,6439.28L18000.7,6407.07L18072.6,6416.98L18156.9,6471.5L18231.2,6496.28L18268.4,6451.67L18459.2,6451.67L18508.8,6392.2L18601.7,6434.32L18662.4,6400.87L18761.6,6356.27L18824.8,6374.53L18895.4,6317.86L19039.2,6310.42L19159.4,6263.34L19232.5,6221.21L19309.3,6239.8L19377.4,6228.65L19446.2,6220.94L19440.6,6171.65L19609.2,6040.31L19678.6,5889.15L19775.2,5844.54L19878.1,5832.15L20065.2,5901.54L20150.7,5874.9L20259.7,5824.1L20348.6,5754.99L20354.7,5701.55L20446.7,5614.81L20480,5558.73L20613.2,5457.1L20679.8,5481.64L20788.5,5492.15L20813.9,5449.22L20956.7,5465.86L21062.7,5453.6L21117.9,5483.39L21103,5543.84L21185.4,5551.73L21253.8,5594.66L21279.2,5664.75L21263.4,5772.51L21274.8,5846.98L21259.9,5946.86L21266,6005.56L21191.5,6128.22L21239.7,6199.19L21231.9,6270.15L21177.5,6330.61L21179.3,6396.32L21116.2,6412.09L21080.3,6453.27L21018.1,6492.56L21077.6,6550.8L21078.8,6611.51L21180.5,6611.51L21249.2,6680.27L21249.2,6716.83L21295.7,6716.83L21310.2,6741.99L21337.8,6741.99L21375.4,6779.59L21432.1,6779.59L21517.7,6865.25L21648.9,6865.25L21643.7,6956.17L21719,6953.54L21768.1,7008.73L21872.4,7047.28L21870.6,7091.09L21947.7,7076.2L22054.6,7107.74L22144,7171.69L22226.4,7190.09L22300,7240.03L22331.5,7184.84L22338.1,7111.24L22328.9,7042.03L22231.2,7024.51L22273.7,6914.11L22291.2,6815.11L22333.3,6815.11L22429.7,6878.19L22394.6,6984.2L22481.4,7039.4L22616.3,6974.57L22674.1,6917.62L22675,6851.03L22728.5,6820.37L22806.3,6727.98L22724.5,6637.53L22712.1,6495.04L22725.7,6350.07L22731.9,6289.36L22814.9,6300.51L22859.6,6263.34L22880.6,6165.45L22911.6,6060.14L22979.8,6018.01L22989.7,5889.15L22977.3,5827.2L22946.3,5677.27L23055.3,5612.84L23096.2,5470.35L23112.3,5319.19L23171.8,5243.61L23154.5,5168.03L23205.3,5103.6L23266,5042.89L23439.5,5005.71L23542.3,4961.11L23689.8,4922.7L23884.4,4808.71L24161.9,4776.49L24209,4729.41L24186.7,4614.18L24145.8,4554.7L24139.6,4413.45L24106.2,4274.68L24049.2,4211.49L24080.2,4088.83L24135.9,4015.72L24132.2,3906.69L24279.7,3791.46L24273.5,3620.47L24122.3,3562.24L24067.8,3481.7L24071.5,3368.95L23983.5,3342.93L23983.5,3294.6L24015.7,3221.5L23978.5,3153.35L24028.1,3082.73L24061.6,2978.65L24050.4,2784.12L24005.8,2654.02L23953.8,2610.65L23979.8,2561.09L23988.5,2501.62L23974.8,2442.14L23999.6,2396.3L24055.4,2403.73L24095,2391.34L24179.3,2413.65L24216.5,2455.77L24199.1,2527.64L24214,2630.48L24269.7,2777.92L24341.6,2787.84L24372.3,2897.05L24482.7,2973.27L24572.9,2987.29L24595.7,3045.56L24676.2,3065.38L24702.2,3119.9L24765.4,3118.66L24852.2,3231.41L24947.6,3237.61L25111.2,3197.96L25142.1,3165.74L25225.2,3196.72L25267.3,3256.19L25396.2,3309.47L25578.9,3350.01L25719.1,3304.45L25738.3,3330.73L25713.8,3406.08L25762.9,3493.69L25840,3507.71L26071.3,3460.4L26118.6,3416.59L26125.6,3390.31L26060.8,3299.19L26106.3,3255.38L26208,3136.23L26206.2,3069.64L26171.2,3013.57L26141.4,2892.66L26115.1,2813.81L26083.6,2770.01L26180,2673.63L26192.2,2543.96L26269.3,2473.87L26260.6,2433.57L26339.4,2396.77L26432.3,2289.89L26569,2265.35L26661.9,2225.05L26633.8,2083.12L26661.9,1949.95L26728.5,1822.03L26789.8,1753.69L26838.9,1730.91L26870.4,1695.87L26844.1,1634.54L26930,1599.49L26998.4,1502.95L26989.8,1359.23L27046.8,1300.99L27044.3,1215.5L26998.4,1113.89L27136,1076.72L27224,1013.53L27179.3,835.112L27108.7,827.677L27010.8,863.61L26972.4,801.658L27008.3,747.14L27035.6,693.861L27155.8,595.977L27171.9,500.571L27137.2,420.034L27060.4,420.034L27023.2,374.189L27079,306.042L27092.6,175.943L27020.7,131.338L26952.6,130.099L26926.6,-0L21762.9,-0L21728.2,27.259L21656.3,38.41L21593.1,154.88L21424.6,187.095L21285.8,235.417L21161.9,260.198L20962.4,297.369L20879.3,328.345L20755.4,313.477L20643.9,351.887L20533.6,428.707L20424.6,406.404L20352.7,339.496L20265.9,328.345L20222.6,366.755L20217.6,469.595L20267.2,558.806L20391.1,628.192L20350.2,707.491L20406,832.634L20382.4,929.279L20353.9,1001.14L20394.8,1127.53L20384.9,1191.95L20528.6,1288.6L20528.6,1341.88L20485.3,1396.4L20401,1413.74L20344,1370.38L20218,1413.75L20151.5,1483.84L20111.1,1632.79L20079.6,1732.67L20027,1776.47L19911.4,1716.89L19860.5,1653.81L19722.1,1638.04L19646.7,1588.98L19627.5,1436.53L19469.1,1281.16L19261,1214.26L19154.4,1226.65L19050.3,1134.96L19028,1008.58L18938.8,946.625L18876.8,745.901L18985.9,602.172L19005.7,490.659L19085,443.576L19223.8,448.532L19290.7,356.843L19290.7,235.417L19208.9,185.856L19171.7,175.943L19087.5,101.601L19087.5,-0L11724.2,-0L11706.9,79.298L11644.9,141.25L11642.5,218.071L11667.2,284.979L11578,319.672L11449.1,406.404L11359.9,398.97L11295.5,332.062L11270.7,183.378L11231.1,96.645L11192,35.313L11123.2,-0L11088.5,-0L11041.5,34.693L10916.3,137.533L10809.7,166.031L10706.9,287.457L10587.9,323.389L10513.6,385.341L10467.3,464.026Z" style="fill:rgb(57,92,185);"/>
    <path id="Pyrskie" d="M19962.2,20785L20091.9,20863.9L20181.3,20869.1L20284.7,20986.5L20351.2,21089.9L20465.2,21053.1L20584.3,21053.1L20584.3,20992.6L20827.3,20992.6L20827.3,21028.9L20902.9,21028.9L20979.7,21047.5L21025.6,21053.7L21060.3,21104.5L21050.4,21207.3L21050.4,21259.4L21102.4,21311.4L21102.4,21539.4L21148.3,21497.3L21275.7,21489.4L21423.8,21528.8L21504.4,21673.4L21544.7,21728.3L21637.6,21728.3L21686.6,21662.9L21767.2,21610.3L21884.7,21529.7L22080.9,21428.1L22117.7,21355.4L22171.6,21351.9L22219.2,21318.1L22257.9,21386L22272,21440.3L22389.4,21473.6L22487.5,21417.6L22566.4,21372L22692.5,21322.9L22776.7,21272.1L22909.9,21291.4L23079.8,21408.8L23185,21407.1L23225.3,21442.1L23302.4,21424.6L23279.6,21335.2L23284.9,21270.4L23375.1,21185L23465.5,21043.8L23458.1,20939.7L23474.2,20633.7L23533.7,20568L23547.3,20491.2L23495.3,20411.9L23497.7,20356.1L23591.9,20273.1L23595.6,20152.9L23650.2,20098.4L23656.4,19952.2L23737,19875.6L23829.9,19859.8L24031.8,19765.1L24157,19726.7L24259.8,19630L24320.6,19590.4L24385,19591.6L24563.4,19580.5L24709.7,19609L24816.2,19597.8L24894.3,19610.2L24971.1,19605.3L25002.1,19613.9L25051.7,19523.5L25043,19446.7L25035.6,19364.9L25061.6,19262L25282.7,19067.8L25359.8,18883.8L25410.6,18847L25415.9,18747.1L25461.5,18638.5L25454.4,18543.9L25564.8,18435.2L25561.3,18305.5L25564.8,18223.2L25596.4,18133.8L25649,18083L25733.1,18062L25833,18076L25939.9,18035.7L26085.3,18049.7L26188,18058.9L26362.7,17876.8L26490.4,17879.3L26506.5,17814.9L26625.4,17741.8L26694.8,17642.6L26712.2,17456.8L26772.9,17318L26733.3,17223.8L26706,17091.3L26667.6,17033L26678.7,16963.6L26789,16898L26848.5,16785.2L26940.5,16705.7L27062.3,16669.8L27142.1,16693.5L27244.6,16733.8L27282.2,16789.5L27284.1,16850.9L27284.1,16909.7L27281,16954.3L27311.3,16972.3L27359.7,16953.1L27382,16928.9L27377.6,16888.1L27365.9,16816.2L27370.8,16749.3L27433,16653.2L27503.1,16560.3L27611.7,16491.1L27785.2,16399.1L27934,16367.7L27986.1,16372.6L28003.4,16342.9L28056.7,16331.7L28118.7,16356.5L28136,16337.9L28195.5,16334.2L28321.9,16380L28439.6,16375.1L28494.1,16326.8L28499.1,16268.5L28552.4,16236.3L28600.7,16261.1L28677.5,16240L28759.3,16254.9L28818.8,16290.8L28870.8,16299.5L28909.3,16342.9L28936.5,16376.3L29000,16392.4L29000,16926.5L28965,16943.2L28920.4,16987.2L28925.4,17060.9L28933.4,17129L28958.2,17197.8L28918.6,17254.8L28905.5,17333.5L28898.7,17356.4L28930.3,17404.1L28961.9,17491.5L28985.5,17531.7L29000,17583.2L29000,17643.2L28980.5,17686L28981.1,17734.9L28959.5,17777.1L28959.5,17835.9L28926,17870.6L28841.7,17873.1L28730.8,17861.9L28670.1,17865.7L28630.4,17916.5L28636,17950.5L28709.8,17964.2L28727.7,18028L28691.2,18080.6L28707.3,18132L28662.3,18215.3L28629,18260.9L28613.3,18301.2L28650.1,18297.7L28693,18310.8L28715.8,18347.6L28718.4,18386.2L28735.9,18383.5L28759.6,18331.8L28791.1,18265.2L28783.3,18226.7L28813.9,18203.9L28815.7,18155.7L28871.8,18134.7L28900.7,18153.1L28934.8,18110.2L28941,18057.6L29000,18037.5L29000,18522.8L28956.8,18540.3L28912.1,18564L28902.4,18613.1L28906.8,18681.4L28927,18722.6L28949.7,18743.6L28958.5,18840L28930.5,18880.3L28924.3,18932.9L28888.4,18946L28847.2,18964.4L28837.6,19031L28831.5,19063.4L28805.2,19078.3L28735.9,19087.1L28710.5,19121.2L28749.1,19172L28772.7,19222L28771,19249.1L28745.6,19288.6L28664.1,19332.4L28600.1,19342L28551.9,19321L28527.4,19299.1L28481,19319.2L28399.5,19351.6C28399.5,19351.6 28345.1,19338.5 28341.6,19337.6C28338.1,19336.8 28289.9,19304.3 28289.9,19304.3L28265.4,19255.3L28288.2,19219.4L28295.2,19191.3L28268,19167.7L28176.9,19153L28111.2,19108.4L28057.9,19146.8L27988.5,19184L27951.4,19191.4L27934,19245.9L27898.1,19289.3L27888.2,19330.2L27838.6,19348.8L27785.3,19348.8L27746.9,19298L27688.7,19291.8L27615.6,19284.4L27587.1,19314.1L27527.6,19338.9L27473,19342.6L27448.3,19381L27447,19431.8L27435.9,19470.2L27408.6,19488.8L27341.7,19493.8L27272.3,19482.6L27202.9,19488.8L27137.2,19483.8L27137.2,19540.8L27160.8,19579.2L27211.6,19583L27248.8,19613.9L27291.5,19670.9L27389.4,19635L27474.9,19623.2L27529.4,19641.8L27562.3,19705L27558.6,19756.4L27520.1,19792.4L27464.4,19799.2L27379.5,19787.4L27351,19762.6L27276.6,19758.9L27237.6,19799.2L27174.4,19814.7L27154.6,19863L27106.9,19894.6L27085.8,19939.2L27045.5,19978.8L27048,20028.4L27027.3,20075.3L27009.8,20135.8L26979.1,20163.8L26934.4,20181.3L26895.9,20177.8L26876.6,20228.7L26776.7,20232.2L26722.4,20214.6L26672.4,20170.8L26644.4,20182.2L26644.4,20244.4L26626.8,20263.7L26576.9,20270.7L26516.4,20336.3L26478,20369.1L26422.2,20364.2L26393.1,20383.4L26395.6,20436.7L26372,20471.4L26331.1,20488.7L26275.4,20489.3L26158.3,20518.4L26111.2,20577.9L26075.7,20631.7L26030.1,20681.6L25987.2,20697.4L26009.1,20738.6L26051.2,20774.5L26165.9,20758.7L26244.8,20700L26313.2,20670.2L26374.5,20707.9L26461.2,20811.3L26505,20929.6L26502.4,20976L26454.2,21004.9L26395.5,21032.9L26419.2,21145.1L26456,21172.3L26510.3,21152.1L26546.2,21146L26621.6,21203.8L26749.5,21245.8L26842.4,21273.9L26965.1,21228.3L27003.6,21163.5L27036.9,21154.7L27066.7,21039.1L27166.6,21005.8L27217.4,20923.4L27396.2,20837.6L27552.2,20795.5L27666.1,20825.3L27801.4,20971.9L27883.2,20986.8L27932.8,21033.9L27950.1,21083.4L28020.9,21130.2L28045.5,21163.5L28113.8,21158.2L28149.7,21188L28158.5,21280.9L28114.7,21398.3L28037.6,21471.9L27948.2,21491.2L27902.6,21529.7L27844.8,21535L27788.7,21650.6L27671.3,21740L27720.4,21846.9L27767.7,21904.7L27778.2,21980L27743.2,22130.7L27690.6,22197.3L27695.9,22263.9L27674.8,22337.5L27569.7,22390.1L27538.1,22463.7L27389.2,22558.3L27252.5,22568.8L27152.6,22584.6L27110.5,22688L27003.6,22791.3L26947.5,22850.9L26895,22863.2L26826.6,22859.7L26774.1,22896.5L26748.1,23008.9L26807.6,23103.1L26837.3,23241.8L26886.9,23405.4L26976.1,23554.1L27050.5,23650.7L27088.9,23761L27081.5,23805.6L27026.9,23832.9L27034.4,23959.2L27085.2,24013.8L27183.1,24065.8L27211.6,24001.4L27264.9,23990.2L27352.8,24007.6L27411.1,24050.9L27421,24124L27393.7,24178.6L27367.7,24213.2L27392.5,24331L27408.6,24360.7L27380.1,24410.3L27371.4,24501.9L27380.1,24583.7L27421,24643.2L27485.4,24672.9L27553.6,24664.3L27606.9,24705.1L27692.4,24742.3L27729.6,24805.5L27738.2,24872.4L27787.8,24960.4L27782.8,25037.2L27799,25107.8L27801.4,25179.7L27786.6,25272.6L27790.3,25339.5L27842.3,25377.9L27921.6,25348.2L27968.7,25318.5L28005.9,25210.7L28043.1,25163.6L28106.3,25145L28353,25169.2L28428.4,25191.9L28587.9,25188.4L28614.1,25220L28696.5,25220L28743.8,25270.8L28799.9,25272.5L28859.5,25205.1L28830.6,25146.4L28831.5,25087.7L28894.5,25028.1L28934.8,24951L29000,24905.5L29000,29000L28085.2,29000L28079,28957.5L28003.4,28905.5L27981.1,28842.3L27828.7,28833.6L27678.8,28794L27642.8,28821.2L27589.5,28853.4L27491.6,28854.7L27418.5,28894.3L27310.7,28914.2L27256.2,28885.7L27158.3,28874.5L27090.1,28753.1L27108.7,28671.3L27082.7,28578.4L27043.1,28506.5L26927.8,28443.3L26786.5,28359.1L26649,28324.4L26552.3,28255L26512.7,28168.3L26521.4,28101.3L26487.9,28043.1L26387.5,28025.8L26320.6,27952.7L26236.3,27944L26155.8,27874.6L26033.1,27877.1L25994.7,27937.8L25953.8,27957.6L25929,28017.1L25875.7,28045.6L25863.4,28092.7L25792.7,28184.8L25797.9,28221.6L25852.3,28246.1L25862.8,28291.7L25854,28349.5L25883.8,28437.1L25880.3,28473.9L25892.6,28563.3L25862.7,28621.1L25854.1,28673.2L25822.5,28727.1L25770.4,28753.1L25745.6,28879.5L25801.4,28912.9L25891.9,29000L20231.3,29000L20227.5,28889.4L20290.7,28790.3L20440.7,28724.6L20643.9,28696.5L20691.2,28647.4L20673.7,28577.3L20540.5,28544L20531.8,28430.1L20594.8,28335.5L20586.1,28253.2L20519.5,28128.7L20468.7,28032.4L20475.7,27962.3L20608.9,27943L20638.7,27902.7L20603.6,27811.6L20549.3,27667.9L20633.4,27548.7L20729.8,27447.1L20766.6,27370L20731.5,27282.4L20687.7,27207L20687.7,27098.4L20722.8,26958.2L20759.6,26814.5L20754.3,26695.4L20726.3,26637.6L20598.3,26644.6L20407.3,26726.9L20240.8,26744.5L20139.2,26712.9L20027,26572.7L19942.9,26208.3L19886.8,26003.2L19629.2,25858.7L19510.1,25772.8L19249.8,25695.7L19223.8,25582.4L19232.5,25415.1L19262.2,25234.2L19212.7,25192.1L19104.8,25190.8L18985.9,25130.1L18982.2,25045.9L19061.5,24829L19055.3,24541.6L19101.1,24412.7L19223.8,24369.4L19344,24213.2L19459.2,23980.3L19637.7,23891.1L19786.4,23839.1L19905.4,23834.1L20106.1,23623.5L20282.1,23534.3L20448.1,23539.2L20601.8,23442.6L20755.4,23316.2L20829.8,23182.4L20770.3,23103.1L20772.8,22845.3L20735.6,22665.7L20651.3,22627.3L20591.9,22665.7L20470.4,22619.8L20346.5,22505.9L20254.8,22379.5L20259.8,22168.8L20294.5,22007.8L20272.2,21935.9L20168.1,21948.3L20078.7,21954.6L20019.2,21863.5L19989.4,21860.9L19989.4,21916.1L19917.5,21996.7L19842.2,22017.7L19743.1,22010.7L19609.1,21939.7L19539.9,21880.2L19553.9,21824.1L19624,21776.8L19645,21704.9L19574.9,21638.4L19466.3,21668.1L19341.8,21710.2L19236.7,21654.1L19173.6,21482.4L19175.3,21287.9L19247.2,21217.8L19417.2,21210.8L19487.3,21139L19583.7,20955L19687.1,20832.3L19769.4,20795.5L19946.4,20779.7L19962.2,20785L19962.2,20785Z" style="fill:rgb(146,88,40);"/>
    <path id="Międzywódzkie" d="M14916.2,21728.3L15141.9,21559.3L15295.6,21338.7L15479,21289.1L15578.1,21157.8L15764,21259.4L15905.2,21261.9L16160.5,21204.9L16341.4,21177.6L16515.1,21216.1L16567.6,21324.7L16664,21419.4L16788.4,21438.6L16856.8,21368.5L16930.4,21419.4L17023.3,21386.1L17323.8,21386.1L17371.1,21400.1L17423.7,21401L17443,21377.3L17484.2,21372.9L17536.7,21374.7L17600.7,21398.3L17615.6,21410.6L17615.6,21371.2L17673.5,21338.1L17698.8,21238.9L17706.7,21186.3L17643.6,21113.6L17655.9,21030.3L17720.8,20986.5L17712,20922.6L17738.3,20873.5L17725.1,20825.3L17801.4,20794.7L17856.6,20751.7L17859.2,20723.7L18010.8,20723.7L18010.8,20900.7L18045,20900.7L18045,20932.2L18059,20970.8L18073.2,21034.5L18138.2,21082.8L18168,21095.9L18168,21139.8L18291.9,21139.8L18342,21191.6L18420,21213.5L18528.6,21229.2L18568.1,21229.2L18572.5,21080.3L18554.1,20974.3L18564.6,20836.7L18625,20747.4L18662.7,20707.9L18675.9,20552.9L18699,20424.3L18717.6,20340L18758.5,20282.4L18809.9,20271.3L18884.4,20244.5L18929.1,20196.3L18958.9,20118.3L19036.7,19942.9L19127.1,19892.1L19248.9,19795L19308.9,19774.4L19380.8,19774.4L19447.9,19707.3L19502.6,19695.7L19558.3,19674.1L19588.1,19649.3L19651,19586.4L19742.4,19560.1L19922.7,19589.1L20009.5,19583L20098.9,19512.9L20209.3,19491.9L20258.3,19423.5L20255.7,19391.1L20324,19330.7L20318.8,19203.6L20275,19113.4L20344.2,19017L20339.8,18952.2L20322.3,18918.9L20382.8,18853.2L20367,18776.9L20306.5,18701.6L20212.8,18639.4L20155.6,18631.4L20045.3,18697.1L19948.1,18708.6L19864.9,18680.6L19799.2,18694.6L19734.3,18752.4L19679.1,18796.6L19636.6,18809.4L19599.8,18791.8L19560,18779.6L19432,18762.7L19368.1,18729.2L19323.8,18674.9L19261.6,18589.9L19254.6,18553.1L19268.6,18513.2L19302.8,18462L19355.4,18445.8L19379.5,18429.1L19402.2,18345.9L19422,18266.2L19436,18133.9L19478.9,18078.7L19567,17993.7L19565.2,17965.6L19475.9,17864.9L19422.8,17859.2L19309.4,17926.2L19248,17935.8L19036,17935.8L18910.9,17879.9L18819.2,17845.2L18770.2,17844.6L18769.6,17909.6L18708.3,17938.5L18688.1,17973.5L18682,18034L18590,18080.4L18577.7,18151.4L18615.4,18215.3L18615.4,18271.4L18667.1,18294.2L18682.9,18371.3L18720.5,18403.7L18726.7,18449.3L18788.9,18486.1L18788.9,18536L18721.4,18536L18721.4,18623.6L18810.8,18623.6L18810.8,18653.4L18844.1,18653.4L18828.3,18673.6L18784.2,18689.3L18743.3,18742.8L18676.7,18761.2L18623.3,18794.5L18579.5,18819.9L18579.5,18860.2L18539.2,18872.4L18529.5,18826L18477.8,18788.3L18452.4,18745.4L18427.9,18734.9L18441.9,18637.6L18392,18579.8L18352.5,18550L18357.8,18477.3L18356.9,18335.4L18301.7,18234.6L18322.7,18143.5L18285.9,18089.2L18232.5,17998.9L18232.5,17892L18189.5,17836.8L18129.1,17754.5L18062.5,17709.8L17936.3,17691L17869.3,17699.7L17764,17604.2L17666.1,17548.5L17652.5,17477.9L17630.2,17412.2L17645,17321.7L17615.3,17247.4C17615.3,17247.4 17667.4,17181.7 17667.4,17175.5C17667.4,17169.3 17661.2,17117.3 17661.2,17117.3L17630.2,17076.4L17682.2,16979.8L17669.8,16950L17589.3,16921.5L17502.5,16929L17483.3,16930.8L17409.6,16887.5L17337.7,16876.9L17280.7,16914.1L17234.3,16916L17195.2,16970.5L17187.8,17031.2L17125.8,17075L17078.5,17055.3L17034.7,17051.8L16880.9,17140.8L16934.4,17222L16947.4,17279.6L16968.5,17367L16970.3,17443.2L16904,17487.8L16852,17539.8L16838.3,17594.3L16814.8,17674.9L16766.5,17713.3L16683.4,17708.3L16633.9,17735.6L16624,17781.4L16501.3,17777.7L16347.6,17733.1L16280.7,17677.4L16248.5,17585.7L16145.6,17578.2L16094.8,17544.8L16049,17541.1L15999.4,17501.4L15935.6,17462.4L15890.4,17489L15835.8,17481.6L15797.4,17437.6L15745.4,17443.8L15698.9,17445L15622.3,17408.7L15601.4,17564.1L15580.6,17719.5L15579.3,17848.3L15564.5,17925.2L15547.1,17967.3L15571.9,18086.2L15526,18168L15336.4,18176.7L15203.9,18265.9L15135.7,18407.1L15086.1,18656.2L15202.5,18819.9L15220.9,19006.5L15297.1,19126.5L15307.6,19264.9L15348.8,19377.1L15385.6,19434.9L15471.5,19454.2L15529.3,19522.5L15526.7,19637.3L15477.6,19690.7L15484.6,19819.5L15458.3,19869.5L15457.4,19910.7L15427.6,19940.4L15458.3,20087.6L15460.1,20204.2L15504.9,20247.5L15519.7,20329.4L15513.5,20435.5L15464.5,20458.6L15400.5,20446L15267.3,20448.6L15178.8,20469.6L15146.4,20452.1L15024.6,20478.4L14911.5,20469.6L14752.9,20547.6L14687.2,20601.9L14686.4,20731.6L14634.7,20841.1L14515.5,20914.7L14434.9,20933.1L14402.7,20983.7L14428.1,21051.3L14500,21207.3L14557.5,21359.8L14664.4,21442.1L14753.8,21445.6L14760.8,21491.2L14781.9,21547.3L14839.7,21573.6L14859,21650.7L14916.2,21728.3Z" style="fill:rgb(157,105,192);"/>
    <path id="Międzyrzeckie" d="M6747.15,17408.7L6834.41,16874L6820.78,16778.5L6844.32,16716.5L6846.18,16655.2L6875.3,16626.7L6900.71,16459.4L6907.52,16392.5L6937.26,16249.4L6966.38,16202.3L6966.38,16165.2L6924.87,16121.8L6921.77,16088.3L6965.15,16014L6978.99,15877L6954.45,15829.7L6948.32,15750.8L6991.26,15629L7007.03,15513.4L6979.86,15458.2L7037.7,15346.9L7056.97,15205L7070.12,14970.2L7055.22,14926.4L7146.35,14795L7218.2,14596.1L7217.32,14493.6L7277.78,14426.1L7290.93,14342.9L7362.78,14257L7435.51,14224.6L7473.19,14139.6L7534.52,14078.7L7587.03,14050.1L7572.33,13982.8L7457.14,13837.6L7395.2,13688.4L7372.42,13630.6L7601.99,13474.6L7659.82,13408L7680.85,13273.1L7654.57,13220.6L7680.85,12980.5L7743.94,12896.4L7771.98,12838.6L7887.65,12812.3L7954.24,12850.8L7994.55,12912.2L7994.55,13029.6L8094.44,13034.8L8225.87,13089.1L8434.42,13052.3L8486.99,12894.6L8476.48,12779L8346.79,12647.6L8259.17,12624.8L8248.65,12517.9L8329.27,12426.8L8457.2,12363.7L8574.61,12361.9L8605.29,12312.4L8701.28,12214L8701.28,12000.1L8838.17,12057.1L8881.72,12211.4L8948.46,12312.4L8979,12437.7L9003.53,12552.9L9057.42,12634L9094.68,12726.2L9165.32,12729.9L9306.58,12708.9L9413.61,12637.5L9568.26,12576.2L9767.56,12625.8L10119.5,12504.4L10529.5,12433.8L10599.6,12575.7L10603.1,12643.2L10648.6,12694L10661,12804.9L10715.5,12907.7L10793.6,12982.7L10894,13106L10971.4,13164.8L11090.4,13230.5L11131.3,13349.4L11131.9,13463.4L11195.7,13555.7L11328.3,13633.2L11553.2,13681.5L11739.1,13587.3L11828.3,13505.6L12040.2,13439.9L12232,13364.2L12275.8,13373L12271.5,13572.8L12313.5,13704.2L12387.1,13807.6L12498.7,13916.9L12534.7,14008.6L12553.2,14240.3L12599.1,14371.6L12750.5,14371.6L12862,14278.9L12926.9,14276.3L12999.6,14288.6L13022.4,14281.6L13092.5,14308.7L13110,14328L13158.2,14356L13181.9,14393.7L13230.9,14432.2L13332.6,14429.6L13400.2,14330.1L13464.7,14239.1L13534.1,14100.9L13581.1,14008.6L13588,13856.8L13722.4,13817.2L13877.9,13773.8L13960.3,13794.9L14008,13776.9L14122.7,13792.4L14233.6,13788.1L14363,13774.3L14599.6,13935.5L14604.9,14031.9L14491,14210.6L14478.7,14324.5L14462,14409.5L14421.7,14459.4L14377.9,14612.7L14389.3,14773.9L14372.7,14934.3L14432.2,15032.4L14519,15059.6L14602.2,15047.3L14722.3,15028L14891.4,15022.8L15050,15120L15092.1,15225.1L15167.4,15258.4L15222.6,15431L15223.5,15573.8L15305,15602.8L15402.2,15664.1L15648.7,15686.3L15811.1,15712.3L15899,15817.6L15996.3,15872.6L16066.4,15965.5L16146.2,16099.5L16173.3,16181L16161.9,16228.3L16053.3,16318.6L16004.2,16426.3L15880.7,16516.6L15746.6,16531.5L15672.1,16464L15598.5,16461.4L15293.6,16478.9L15170,16563L15165.7,16629.6L15335.6,16630.5L15364.6,16666.4L15354,16773.3L15386.5,16815.3L15377.7,16912.6L15302.3,16975.7L15279.6,17093.1L15279.6,17185.1L15338.3,17271.8L15391.7,17341.9L15489.9,17369.9L15581,17400.6L15622.3,17408.7L15580.6,17719.5L15579.3,17848.4L15564.5,17925.2L15547.1,17967.3L15571.9,18086.3L15526,18168.1L15336.5,18176.7L15203.9,18265.9L15135.7,18407.2L15086.1,18656.2L15202.5,18819.9L15220.9,19006.5L15297.1,19126.6L15307.6,19265L15348.8,19377.1L15385.6,19435L15471.5,19454.2L15529.3,19522.6L15526.7,19637.3L15477.6,19690.8L15484.6,19819.6L15458.3,19869.5L15457.4,19910.7L15427.6,19940.5L15458.3,20087.7L15460.1,20204.2L15504.9,20247.6L15519.7,20329.5L15513.5,20435.5L15464.5,20458.6L15400.5,20446L15267.3,20448.6L15178.8,20469.7L15146.4,20452.2L15024.6,20478.4L14911.5,20469.7L14752.9,20547.6L14687.2,20602L14686.4,20731.6L14634.7,20841.2L14515.5,20914.7L14434.9,20933.1L14402.7,20983.8L14428.1,21051.3L14500,21207.4L14557.5,21359.8L14664.4,21442.2L14753.8,21445.7L14760.8,21491.2L14781.9,21547.3L14839.7,21573.6L14859,21650.7L14916.2,21728.3L14861.8,21777.4L14673.5,21876.5L14619,21964.5L14563.2,22066.1L14559.5,22217.2L14527.3,22328.7L14601.6,22362.2L14667.3,22415.5L14813.5,22430.4L14904,22582.8L15020.5,22618.7L15073.7,22665.8L14765.2,22981.7L14505.8,23095.7L14361.2,23291.5L14039,23306.4L13813.5,23240.7L13704.4,23275.4L13646.2,23355.9L13594.2,23464.9L13511.1,23756.1L13440.5,23741.3L13289.3,23742.5L13216.9,23630.8L13250.2,23464.3L13195.9,23336.4L13265.1,23226L13366.7,23210.2L13376,23044.2L13423.3,22821.2L13376,22680.6L13313.7,22602.6L13237.8,22576.1L13171.8,22496L13105.1,22521.3L13076.1,22430.4L13076.1,22233.8L12829.8,22233.8L12750.5,22310.2L12610.3,22415.5L12498.7,22551.8L12483.1,22720.8L12561,22863.5L12464.7,22937.9L12435.3,23037.6L12408.2,23037.5L12343.6,22959.4L12280.3,22869.2L12202,22880.9L12172,22772.3L12056.9,22772.3L12039.6,22720.8L11970,22720.8L11828.1,22707.9L11725.6,22810.7L11613.4,22821.2L11573.1,22737.1L11464.4,22782.7L11269.9,22814.2L10987.8,22842.2L10878.2,22803.7L10653.6,22772.3L10457.8,22665.8L10472.7,22619.9L10382.2,22575.3L10294.2,22551.8L10309.1,22534.4L10217.4,22496L10198.8,22575.3L10107.1,22632.3L10025.3,22663.3L9959.63,22716.6L9862.98,22756.2L9890.24,22680.6L9861.74,22602.6L9866.69,22513.4L9822.08,22310.2L9825.8,22125.5L9804.73,21959.5L9742.77,21964.5L9673.38,21962L9610.18,21932.3L9569.29,21887.7L9513.53,21822L9488.74,21761.3L9492.46,21685.7L9542.03,21570.5L9637.44,21435.4L9741.54,21352.4L9903.87,21357.3L10009.2,21302.8L10001.8,21232.2L9946,21000.5L9895.19,20908.8L9898.91,20766.3L9838.19,20628.8L9839.43,20534.6L9784.91,20449.1L9670.9,20368.6L9563.09,20348.8L9405.72,20385.9L9268.17,20447.9L9161.6,20548.3L9012.9,20554.4L8900.13,20496.2L8812.15,20342.6L8704.34,20281.9L8623.79,20278.1L8554.4,20184L8380.09,20007.1L8288.96,19770.5L8152.27,19607.6L7949.68,19377.4L7978.18,19259.7L7943.48,19101.1L7884,18956.1L7815.84,18890.4L7669.62,18853.2L7456.48,18751.6L7421.78,18650L7342.48,18327.9L7307.78,18164.3L7119.42,17797.6L7173.95,17688.6L7198.73,17515.1L6916.2,17420.9L6747.15,17408.7" style="fill:rgb(13,26,60);"/>
    <path id="Kresowickie" d="M20891,10259.2L20850.7,10329.3L20827.9,10397.6L20795.5,10463.3L20787.6,10477.6L20795.7,10520.7L20762.5,10572.4L20737.5,10626.3L20737.5,10673.7L20726.9,10701.9L20758.2,10743.1L20756.7,10782.1L20744,10855.8L20726.3,10930.2L20712.2,10961.4L20622.2,11012.9L20481.6,11160L20431.4,11228.8L20284.5,11264.7L20215.1,11298.2L20092.8,11426.2L20087.5,11519.1L20110.3,11586.5L20196.9,11699.9L20280.8,11635.8L20534.9,11614.8L20746.8,11573.3L20834.1,11567.3L20955,11518.2L21062.7,11458.6L21137.1,11406.6L21186.7,11414L21253.6,11482.2L21357.7,11458.6L21485.3,11459.9L21560.9,11415.3L21603,11422.7L21621.6,11524.3L21661.3,11591.2L21718.3,11669.3L21682.3,11744.9L21678.6,11873.7L21718.3,11910.9L21802.5,11891.1L21853.3,11824.2L21917.8,11814.2L21961.2,11853.9L21961.2,11927L22002,11986.5L22007,12084.4L22145.8,12195.5L22273.7,12191.9L22424.4,12239.3L22515.5,12230.5L22576.9,12284.8L22580.4,12349.7L22697.8,12381.2L22813.5,12298.8L22897.6,12279.6L22995.7,12156.9L23088.6,12074.5L23165.7,12079.8L23313.1,12083.1L23469.2,12008.8L23625.4,11909.6L23796.4,11825.4L24076.4,11599.9L24163.2,11513.2L24299.5,11493.3L24336.7,11463.6L24458.1,11438.8L24705.9,11205.9L24720.8,11099.3L24899.3,10965.5L24924,10858.9L24995.9,10715.2L24988.5,10640.9L25000.9,10504.6L24924,10259.3L24867,10175L24844.7,9971.79L24775.3,9862.76L24625.5,9745.79L24441.5,9586.33L24367.9,9544.28L24280.3,9467.18L24162.9,9453.16L24010.8,9493.53L23559.7,9493.53L23399.8,9441.49L23288.3,9441.49L23074.6,9645.91L22936.1,9758.05L22788.9,9808.87L22661,9766.81L22377.5,9883.82L22409.7,10033.7L22401.1,10101.9L22349,10161.4L22085.1,10115.5L21941.3,9981.71L21899.2,9898.69L21850.9,9871.43L21792.6,9860.28L21703.4,9850.37L21683.6,9935.86L21606.7,9990.38L21547.7,10045L21512.7,10055.9L21394.8,10042.4L21371.2,10095.4L21290.6,10114.6L21248.5,10162.8L21228.4,10223.3L21189.8,10228.5L21129.3,10253.1L21116.2,10289L21035.6,10295.1L20961.1,10282.9L20891,10259.2Z" style="fill:rgb(169,148,33);"/>
    <path id="Kampinowskie" d="M12343.6,22959.4L12451.1,23089.3L12582.5,23085.8L12607,23210.2L12561.5,23453.8L12586,23550.1L12777.5,23701.6L12796.1,23757.3L12877.9,23819.3L13222.4,23794.5L13302.9,23800.7L13289.3,23742.5L13440.5,23741.2L13511.1,23756.1L13552,23609.9L13594.1,23464.9L13646.2,23355.9L13704.4,23275.4L13813.5,23240.7C13813.5,23240.7 14032.8,23306.3 14039,23306.3C14045.2,23306.3 14361.2,23291.5 14361.2,23291.5L14505.7,23095.7L14765.2,22981.7L15073.6,22665.7L15267.3,22803.7L15351.4,22989.4L15321.6,23231.2L15368.9,23404.7L15276,23513.3L15085,23585.2L14850.2,23480L14522.5,23579.9L14592.6,23807.7L14645.1,24002.2L14864.2,24026.8L15023.7,24130.1L15070,24307.5L15238.5,24282.7L15362.4,24327.3L15483.9,24414L15649.9,24406.6L15751.6,24305L15961,24168.7L16086.1,24167.5L16238.1,24294.8L16352.1,24189.7L16555.3,24103.9L16753.4,24116.1L16898.8,24170.4L17039,24195L17093.3,24245.8L17240.6,24202L17487.7,24237L17573.5,24324.6L17724.3,24313.7L17890.4,24291.4L18115,24373.7L18278,24531.4L18288.5,24797.7L18339.4,25090.4L18493.6,25211.3L18710.9,25200.8L18869.3,25281.4L18911.5,25392.9L18917.7,25569.6L18932.6,25822.8L18972,25948.1L18971.1,26055L18976.4,26234.6L19007,26367.8L19010.5,26463.3L18983.4,26642L18866.8,26884.7L18876.8,27086.6L18927.6,27242.8L19023,27338.2L19052.7,27387.7L19016.8,27489.3L19036.6,27665.3L19119.7,27696.2L19169.2,27849.9L19174.2,27982.5L19216.3,28112.6L19317.2,28167.4L19404.9,28335.6L19394.3,28524.8L19373.3,28687.8L19394.3,28822.7L19394.3,29000L10333.2,29000L10333.2,28950.8L10244,28911.7L10188.2,28838.6L10195.7,28668.3L10118.8,28580.9L10125,28490.5L10098.4,28403.1L10112,28360.4L10093.4,28242L10126.3,28188.1L10150.4,28101.4L10136.2,28011L10051.9,27876.5L9967.8,27860.7L9454.33,27932.5L9382.48,27795.9L9338.67,27652.2L9338.67,27541.8L9433.3,27419.1L9478.86,27024.9L9538.45,26905.7L9773.28,26737.5L9789.05,26429.1L9890.69,26295.9L9978.32,26201.3L9997.59,26066.4L10050.2,25952.5L10141.3,25912.2L10258.2,25905.8L10395.8,25944.2L10507.3,26026L10600.3,25949.8L10633.7,25906.5L10648.6,25835.2L10688.9,25823.4L10725.4,25860.6L10774.4,25900.9L10846.9,25974L10882.8,25978.9L10916.3,26008.1L10970.2,25964.7L10959.6,25925L10994.9,25886.6L10986.9,25841.4L10934.8,25798L10891.5,25724.9L10917.5,25675.4L10922.5,25604.7L10897.7,25521.7L10929.9,25470.9L10921.2,25338.4L10943.5,25262.8L11035.2,25158.7L11119.5,25100.5L11231.3,24980L11320.7,24871.3L11401.3,24894.1L11460.9,24874.8L11510,24822.3L11588.8,24843.3L11574.8,24776.7L11590.6,24664.6L11648.4,24620.8L11779.9,24473.6L11907.8,24247.5L11948.1,24081.1L12007.7,23937.4L11963.9,23697.3L11962.1,23555.4L11886.8,23450.3L11958.6,23431L11988.4,23367.9L12069,23325.8L12153.1,23276.8L12232,23220.7L12291.6,23113.8L12343.6,22959.4L12343.6,22959.4Z" style="fill:rgb(139,138,145);"/>
    <path id="Grzegórzeckie" d="M0,5316.05L178.525,5296.78L345.01,5350.22L408.975,5382.64L477.321,5373L545.668,5408.92L564.945,5505.29L593.861,5595.54L667.464,5597.29L651.692,5688.41L610.509,5773.39L635.92,5910.94L712.152,5945.99L765.603,6027.47L821.682,6042.36L897.038,6119.46L931.211,6172.91L961.879,6268.4L958.374,6413.84L942.602,6453.27L944.355,6586.44L939.974,6659.16L914.563,6725.75L917.191,6830.88L931.211,6933.39L949.612,7042.91L1031.98,7129.64L1145.89,7208.5L1368.45,7313.63L1357.94,7396.86L1373.71,7459.07L1441.18,7529.16L1521.79,7564.2L1626.07,7540.55L1678.64,7492.36L1693.54,7472.21L1793.43,7516.02L1817.09,7520.84L1851.26,7484.91L1875.79,7448.99L1912.16,7420.08L1947.64,7405.19L1992.77,7391.61L2055.42,7447.68L2106.3,7478.22L2086.48,7527.16L2072.22,7613.27L2091.43,7656.02L2210.39,7744.61L2288.46,7779.3L2360.95,7805.94L2399.37,7825.15L2516.32,7917.29L2589.93,7926.92L2629.36,7970.73L2659.15,8020.67L2759.91,8082.88L2887.61,8175.8L2976.21,8217.92L3005.33,8204.29L3095.17,8267.49L3142.88,8286.07L3210.42,8335.63L3248.21,8339.97L3315.75,8370.33L3364.69,8369.71L3390.72,8352.98L3476.68,8387.77L3581.82,8349.22L3666.82,8309.79L3728.15,8257.23L3761.45,8194.14L3822.79,8228.31L3863.09,8238.83L3893.76,8224.81L3935.82,8236.2L4016.44,8272.12L4047.98,8253.72L4047.1,8208.16L4076.02,8124.93L4145.24,8199.4L4204.83,8183.63L4148.75,8154.72L4163.64,8077.62L4097.05,8054.84L4128.59,8013.66L4123.34,7965.47L4139.98,7898.89L4156.63,7866.47L4157.51,7829.67L4183.8,7815.65L4269.3,7824.53L4403.13,7777.44L4460.13,7786.12L4569.18,7856.74L4611.31,7877.81L4639.81,7964.54L4648.49,8036.4L4592.73,8145.44L4570.42,8218.54L4560.51,8305.28L4549.35,8373.42L4530.77,8430.42L4515.89,8481.52L4600.88,8485.9L4600.01,8522.69L4636.81,8560.37L4661.35,8562.12L4694.64,8604.17L4697.27,8634.84L4740.21,8668.13L4706.91,8753.12L4667.48,8801.3L4648.2,8837.23L4661.35,8872.27L4656.09,8901.18L4636.81,8912.57L4652.58,8944.99L4695.52,8933.6L4716.55,8959.88L4667.48,9058.01L4723.56,9168.4L4699.9,9191.18L4726.19,9274.42L4793.66,9386.56L4970.68,9499.71L5041.31,9503.43L5140.44,9576.53L5190.01,9567.86L5315.17,9588.92L5380.85,9596.35L5421.74,9574.05L5478.74,9619.9L5585.31,9609.98L5677.01,9605.03L5769.95,9602.55L5805.89,9637.24L5906.26,9612.46L5955.83,9626.09L6139.23,9638.48L6196.23,9598.83L6223.49,9549.27L6305.28,9555.47L6386.65,9554.78L6494.43,9520.61L6589.94,9539.01L6670.55,9494.33L6846.68,9490.82L6929.92,9450.52L7002.94,9462.54L7030.2,9435.28L7203.69,9448.91L7252.01,9410.5L7342.47,9425.37L7442.85,9379.52L7509.76,9393.15L7589.07,9347.31L7748.93,9347.31L7775.61,9390.47L7579.21,9511.85L7506.48,9569.67L7425.5,9590.16L7311.49,9745.66L7183.86,9837.97L7190.67,9956.91L7227.23,10053.6L7226.61,10085.2L7185.1,10160.1L7216.7,10209.1L7223.51,10289L7221.96,10372.3L7220.41,10455.6L7177.66,10589.4L7113.05,10672.3L7086.76,10760.3L7007.9,10814.7L6956.2,10925L6905.66,10981.6L6887.07,11030.9L6905.66,11091.4L6939.37,11108.2L7027.32,11125.3L7175.11,11166.9L7284.23,11217L7258.21,11302.5L7188.82,11373.1L7190.05,11437.6L7214.84,11544.1L7285.47,11651.9L7190.16,11700.4L7109.55,11757.4L7100.78,11795L7145.47,11880.9L7135.83,11938.7L7155.99,12014.1L7124.44,12156.9L7134.96,12217.3L7094.65,12310.2L7094.65,12513.5L7135.83,12557.3L7136.71,12602.8L7075.37,12658L7108.67,12706.2L7142.84,12780.7L7193.66,12808.7L7225.21,12849L7240.98,12906L7228.71,12960.3L7145.47,12977L7088.52,13026L7091.15,13072.4L7032.44,13147.8L6959.71,13180.2L6945.69,13233.7L6976.36,13309L6999.14,13380L7063.98,13396.6L7092.9,13436.9L7167.38,13515.8L7208.56,13608.6L7288.3,13616.5L7342.62,13634.9L7372.42,13630.5L7457.14,13837.6L7572.33,13982.8L7587.03,14050L7534.52,14078.7L7473.18,14139.6L7435.51,14224.6L7362.78,14257L7290.93,14342.8L7277.78,14426.1L7217.32,14493.5L7218.2,14596L7146.35,14794.9L7055.22,14926.3L7070.12,14970.2L7056.97,15205L7037.69,15346.9L6979.86,15458.2L7007.03,15513.4L6991.26,15629L6948.32,15750.8L6954.45,15829.6L6978.99,15876.9L6965.14,16014L6921.77,16088.3L6924.87,16121.7L6966.38,16165.1L6966.38,16202.3L6937.26,16249.4L6907.52,16392.5L6875.3,16626.7L6846.18,16655.2L6844.32,16716.5L6820.78,16778.4L6834.41,16874L6747.15,17408.7L6504.79,17391.1L5939.72,17495.2L5719.84,17587.2L5595.23,17246.2L5496.09,17096.3L5415.54,16834.8L5354.82,16790.2L5251.97,16789L5094.2,16874L5052.15,17019.4L4983.8,17220.9L5106.47,17376.9L5220.38,17450.5L5225.64,17503L5010.09,17692.3L4844.28,17951.2L4680.71,18090L4626.18,18170.5L4661.31,18287.3L4406.85,18363.8L4047.48,18601.7L4030.14,18678.5L4156.53,18840.8L4156.53,19003.1L4258.15,19246L4277.97,19391L4118.12,19522.3L3708,19507.6L3488.07,19677.6L3362.76,19549.7L3321.58,19430.5L3339.11,19369.2L3332.1,19298.2L3281.27,19233.4L3189.27,19165.9L3079.74,19175.6L2968.46,19308.8L2992.12,19435.8L2939.54,19646.1L3003.51,19757.3L3056.96,19885.3L3194.53,20035.9L3473.17,20064L3658.93,20151.6L3764.08,20289.2L3707.12,20398.7L3784.23,20510.8L3502.96,20746.5L3497.7,21126.7L3466.31,21237.1L3363.45,21364.7L3290.34,21455.2L3169.99,21521L3120.05,21603.3L3014.02,21655.9L2893.98,21669.9L2774.81,21748.8L2716.6,21871.5L2748.82,21960.7L2814.24,22044.9L2754.66,22130.8L2786.2,22197.4L2766.92,22293.7L2630.23,22356.8L2398.91,22488.2L2325.3,22537.3L2264.84,22509.3L2222.78,22511L2178.97,22541.7L2043.15,22539.1L1952.9,22593.4L1900.33,22642.4L1721.58,22705.5L1614.67,22736.2L1535.81,22683.6L1466.59,22640.7L1368.45,22646.8L1303.61,22612.7L1167.8,22616.2L1095.07,22669.6L982.033,22702L832.197,22732.7L652.568,22710.8L576.53,22624L462.425,22632.8L333.619,22553.1L242.49,22546.9L129.456,22502.3L-0,22419.9L-0,17081.4L199.818,17024.4L298.953,17039.3L358.434,17128.5L453.851,17174.3L654.599,17185.5L784.713,17195.4L865.26,17300.7L913.588,17370.1L1023.88,17391.1L1161.66,17354.1L1370.2,17305L1417.52,17215.7L1515.66,17079L1613.8,17007.2L1548.96,16905.5L1431.54,16798.6L1378.97,16623.4L1272.07,16537.6L1121.35,16462.2L1038.99,16360.6L991.671,16243.2L795.395,16195.9L679.732,16082L679.732,16018.9L534.277,15999.6L378.307,16045.2L257.386,15980.3L266.149,15843.7L422.118,15792.8L460.673,15682.4L369.544,15598.3L292.436,15617.6L143.476,15537L115.436,15414.4L162.753,15277.7L280.168,15265.4L385.317,15107.7L281.921,15067.4L169.763,14993.8L92.654,14864.1L78.634,14752L110.179,14650.4L99.664,14608.3L-0,14552.2L-0,13947.7L80.387,13914.4L101.416,13818L66.367,13728.7L113.684,13621.8L78.634,13499.1L124.198,13248.6L71.624,13139.9L-0,13068.1L-0,5316.05L0,5316.05Z" style="fill:rgb(179,42,50);"/>
    <path id="Brzóskie" d="M20073.8,11944.3L19979.6,12135.1L19850.7,12239.2L19709.5,12288.8L19531.9,12228.7L19487.2,12288.3L19394.3,12313.7L19291.8,12348.7L19109.5,12417.1L18947.4,12412L18880.5,12445.5L18768.3,12286.9L18796.8,12199.5L18721.2,12067.6L18758.4,12011.2L18708.8,11881.1L18762.7,11828.5L18638.2,11715.1L18633.2,11658.7L18576.2,11583.7L18361.2,11687.8L18169.3,11706.5L17925.7,11727.6L17887.2,11834.4L17869.7,12018.4L17689.2,12125.3L17625.2,12177.2L17605.3,12282.6L17695.8,12350.7L17692.1,12470.9L17704.5,12510.5L17569.4,12560.1L17573.1,12691.4L17627.7,12757.1L17728,12759.6L17761.5,12830.2L17768.9,12910.8L17690.8,12985.1L17614,13063.2L17576.8,13101.6L17448,13107.8L17336.4,13039.6L17231.1,13032.2L17177.8,13075.5L17191.5,13246.5L17260.9,13341.9L17379.8,13447.3L17486.4,13422.5L17626.4,13448.5L17628.9,13534L17689.6,13612L17799.9,13675.2L17829.6,13743.4L18021.7,13871L18081.2,13883.4L18118.4,13946.6L18211.3,13975.7L18231.8,14035.8L18247.2,14132.4L18314.2,14184.5L18461.6,14284.8L18418.2,14343.1L18388.5,14396.4L18398.4,14452.1L18421.7,14473.4L18395.4,14532.1L18392.8,14588.1L18323.6,14626.7L18334.9,14693.3L18306,14719.5L18252.6,14712.5L18198.3,14753.7L18172.8,14815L18099.2,14865L18057.2,14971.9L17955.5,14993.8L17876.7,15035.8L17773.3,15047.2L17677.8,15104.2L17589.3,15058.6L17527.9,15060.4L17477.1,15156.5L17405.2,15185L17358.7,15231.5L17353.6,15313.6L17244.7,15350.4L17221.2,15416.1L17244.7,15532.6L17272,15642.8L17150.6,15730.8L17057.6,15859.7L17066.3,15952.6L17127,16046.8L17223.7,16041.8L17315.4,15934L17429.4,15847.3L17575.6,15870.8L17714.6,15894.4L17802.2,15878.7L17864.4,15927.7L17878,16018.3L18081.2,16114.9L18190.2,16139.7L18220,16191.7L18361.2,16236.3L18485.2,16214L18542.2,16236.3L18640.1,16191.7L18738,16164.5L18751.6,16211.5L18806.1,16252.4L18913.9,16254.9L18972.2,16190.5L19056.4,16098.8L19083.7,16045.5L19171.7,16049.2L19201.4,16143.4L19254.7,16204.1L19319.1,16314.4L19305.5,16391.2L19304.3,16461.8L19352.6,16528.7L19368.7,16671.2L19337.7,16762.9L19272,16860.8L19202.7,16910.4L19155.6,16864.5L18982.1,16807.5L18886.7,16805L18785,16902.9L18693.3,16938.9L18626.4,17055.3L18619,17165.6L18656.2,17207.7L18775.1,17174.3L18879.2,17185.4L18937.5,17201.5L18956.1,17280.8L18982.1,17331.6L18927.6,17443.2L18781.3,17550.9L18751.6,17621.6L18729.3,17713.3L18726.2,17788.2L18770.2,17844.6L18819.1,17845.2L19035.9,17935.8L19248,17935.8L19309.3,17926.2L19422.8,17859.2L19475.8,17864.9L19565.2,17965.6L19566.9,17993.7L19665.9,17978.8L19789.5,18004.2L20276.7,17995.4L20351.2,18012.9L20374.9,17940L20405.9,17835.9L20382.7,17760.3L20398.5,17709.5L20466.6,17666.2L20496.6,17549.5L20521.2,17465.3L20508,17419.8L20540.4,17337.4L20546.6,17265.6L20526.4,17212.1L20621,17125.4L20622.8,17029L20577.2,16950.2L20600,16902.9L20578.1,16827.5L20590.4,16773.2L20655.2,16739.9L20694.6,16668.9L20795.4,16548.9L20875.2,16472.7L20866.4,16402.6L20913.7,16335.1L20974.2,16236.3L20990.8,16158.2L20997,16114.3L21097.7,16066.2L21137.1,16024.1L21230,15952.3L21325.5,15947.9L21444.7,15855L21568.3,15864.7L21673.4,15825.2L21729.5,15768.3L21798.7,15707.8L21826,15605.7L21808.7,15465.6L21751.7,15422.3L21646.3,15376.4L21640.1,15303.3L21666.2,15245.1L21739.3,15209.2L21755.4,15115L21746.7,14961.4L21766.5,14903.1L21824.8,14875.9L21824.8,14748.2L21796.3,14681.3L21804.9,14607L21869.4,14562.4L21958.6,14568.6L21998.3,14522.7L21998.3,14463.3L21949.9,14403.8L21938.8,14318.3L22004.4,14219.2L22059,14137.4L22072.6,14060.6L22083.8,13928L22057.7,13714.9L22044.1,13635.6L22036.7,13525.3L22006.9,13360.5L21977.2,13317.2L21975.9,13284.9L22029.2,13229.2L21964.8,13032.2L21951.2,12976.4L21873.1,12944.2L21774,12841.4L21699.6,12852.5L21647.6,12779.4L21532.3,12695.2L21501.3,12534.1L21441.2,12391.7L21264.2,12204.2L21178.3,12163.9L21150.3,12048.2L21003.1,11979.9L20982.1,11866L20862.9,11767.9L20836.6,11604.9L20834,11567L20746.7,11573.2L20534.8,11614.7L20280.7,11635.8L20128.3,11752.2L20087.4,11815.4L20073.8,11944.3Z" style="fill:rgb(74,162,89);"/>
    <path id="Bideckie" d="M16930.4,21419.4L16874.9,21436.6L16833.4,21465.1L16804.9,21515.3L16745.4,21535.8L16702,21579.8L16646.9,21610.1L16608.5,21652.2L16611,21713.6L16619.6,21762.5L16614.7,21819.5L16628.9,21950.8L16666.7,22004.1L16693.4,22064.2L16725,22087.1L16760.9,22087.1L16803.7,22110.1L16829.1,22147.2L16876.8,22147.9L16984.6,22156.5L17038.6,22146.2L17085.5,22156.7L17124.9,22164.6L17189.3,22211.4L17220,22220.2L17255.9,22222.8L17282.2,22251.7L17370,22251.7L17392.3,22281L17423.2,22286.6L17466,22280.4L17477.8,22265.6L17475.3,22207.3L17487.7,22186.9L17538.5,22177.6L17567,22151.6L17565.1,22126.8L17564.5,22104.5L17593.6,22094.6L17628.9,22067.9L17659.9,22016.7L17661,21989.5L17687.9,21967.6L17704.6,21933.7L17738.7,21935.9L17806.8,21936.6L17834,21924.2L17842.1,21883.3L17813.6,21818.3L17824.1,21778L17805.5,21715.4L17843.3,21661.5L17839.6,21613.2L17819.8,21588.4L17812.3,21556.8L17804.3,21498L17768.4,21453.4L17710.1,21408.8L17669.8,21382.1L17644.6,21354.7L17615.6,21371.2L17615.6,21410.6L17600.7,21398.4L17536.8,21374.7L17484.2,21373L17443,21377.3L17423.7,21401L17371.1,21400.1L17323.8,21386.1L17023.3,21386.1L16930.4,21419.4Z" style="fill:rgb(227,72,81);"/>
    <path id="Bideckie1" serif:id="Bideckie" d="M21468.6,19505L21422.1,19540.9L21412.8,19619L21342.8,19615.9L21261,19602.2L21210.8,19557.6L21168.7,19539.7L21115.4,19543.4L21070.8,19571.3L20986.5,19552.7L20881.2,19550.2L20732.5,19620.8L20676.1,19659.2L20647,19712.5L20590,19741L20550.3,19768.9L20489,19765.8L20438.2,19824.7L20333.5,19825L20287,19825L20287,19808.9L20243.6,19808.9L20243.6,19785.3L20234.3,19785.3L20234.3,19809.8L20215.4,19809.8L20206,19823.1L20193.7,19830.8L20193.9,19850.7L20176.6,19869.5L20176.6,19914.9L20245.6,19914.9L20245.6,19942.2L20288.1,19942.2L20319.8,19958.5L20322.9,20078L20339.7,20109.6L20280.2,20186.5L20271.5,20220.8L20304.8,20364.5L20309.2,20412.7L20277.6,20490.7L20254,20550.3L20261,20594.1L20286.4,20623.9L20295.7,20647.4L20308.1,20700.7L20348.3,20719.9L20389.2,20694.5L20435.7,20701.3L20481.8,20694.8L20508.1,20665.9L20507.2,20641.4L20536.1,20638.8L20568.5,20665.9L20571.2,20699.2L20604.5,20732.5L20663.2,20744.8L20694.7,20716.7L20728.9,20672.1L20773.6,20670.3L20812.7,20660.7L20829.5,20639.9L20918.4,20593.8L20937.6,20607.1L20989.6,20617L21006,20647.1L21016.9,20705L21022.8,20752.1L21032.4,20788.3L21071.7,20834.5L21100,20858.7L21080.3,20897.2L21073.2,20938.8L21076.7,20987L21097.8,21040L21100,21080.3L21110,21107.1L21123.2,21153.1L21155.2,21164.9L21192.4,21161.8L21238.8,21106.6L21238.8,21084.7L21270.8,21065L21301.5,21077.7L21331.3,21064L21339.4,21038.3L21355.2,21004.8L21391.4,20966.7L21414.3,20939.2L21443.2,20916.6L21470.7,20911.9L21489.6,20880.6L21521.9,20864.8L21516.2,20830.6L21528,20796L21514.9,20743L21543.3,20693.1L21624.1,20689.5L21656.3,20704.4L21678,20707.5L21689.8,20730.4L21718.3,20738.4L21720.1,20788L21744.3,20834.5L21801.9,20851.2L21812.4,20853.1L21831.6,20898.3L21831.6,20921.8L21816.8,20946L21833.5,20983.8L21871.3,20998.6L21933.3,20991.8L22010.7,20970.1L22033,20941.6L22070.8,20926.2L22123.5,20871L22167.5,20860.5L22194.4,20863.9L22220.2,20899.4L22265.4,20899.9L22319.2,20877.5L22406.9,20791.2L22408.6,20709.7L22390.2,20656.3L22372.7,20575.7L22397.2,20538.9L22481.3,20570.4L22546.2,20557.3L22604.9,20548.5L22623.3,20518.7L22665.4,20490.7L22773.1,20477.6C22773.1,20477.6 22833.6,20496.8 22831.8,20501.2C22830.1,20505.6 22859.9,20563.4 22859.9,20563.4L22891.4,20604.6L22927.4,20622.1L22953.6,20695.7L22950.1,20731.6L23038.6,20743.9L23064,20672.9L23152,20643.7L23171.8,20587.9L23165.6,20513.6L23194.1,20421.9L23272.2,20332.7L23323,20227.3L23268.5,20154.2L23289.5,20125.7L23344.1,20103.4L23345.3,20065L23347.8,20022.9L23393.6,19979.5L23388.7,19876.7L23342.2,19834.6L23334.8,19783.1L23321.8,19742.3L23281.5,19724.3L23220.8,19720.6L23201.6,19698.3L23184.8,19654.9L23146.4,19631.4L23005.8,19572.5L22930,19583.9L22849.4,19608.4L22746,19606.7L22696,19626L22586.5,19618.9L22460.3,19623.3L22314,19620.7L22106.1,19620.7L22038,19586.1L21945.6,19560.1L21836.6,19544.6L21733.9,19579.1L21668.2,19587L21608,19624.5L21590,19564.5L21525.6,19514.3L21468.6,19505Z" style="fill:rgb(227,72,81);"/>
    <path id="Bideckie2" serif:id="Bideckie" d="M18568.1,21229.3L18757.3,21229.3L18818.7,21204.7L18874.8,21174.1L18884.4,21126.8L18873.9,21085.6L18960.6,21052.3L18951.9,20992.7L18904.6,20961.2L18914.2,20904.2L18980.8,20834.1L19097.3,20834.1L19277.8,20653.7L19385.5,20636.8L19468.5,20644.3L19499.5,20624.5C19499.5,20624.5 19523.7,20594.1 19526.8,20593.5C19529.9,20592.9 19593.7,20578.6 19593.7,20578.6L19625.3,20604.6L19704,20602.1L19748.6,20541.4L19810.5,20553.2L19897.3,20554.4L19957.4,20524.1L20009.4,20495L20024.3,20462.1L20036.1,20423.1L20032.3,20378.5L19994.5,20348.1L19995.8,20305.4L20011.3,20261.4L19997,20223.6L19998.3,20180.3L20051.5,20146.8L20112.3,20131.3L20130.2,20097.9L20129,20051.4L20132.7,19967.8L20111,19898.4L20042.3,19820.3L20040.4,19793.1L20046,19755.9L20015.6,19645L20009.5,19583L19922.7,19589.2L19742.4,19560.1L19651,19586.4L19588.1,19649.3L19558.4,19674.1L19502.6,19695.8L19447.9,19707.4L19380.8,19774.5L19308.9,19774.5L19248.9,19795.1L19127.1,19892.2L19036.7,19943L18958.9,20118.3L18929.1,20196.3L18884.4,20244.5L18809.9,20271.3L18758.5,20282.5L18717.6,20340.1L18699,20424.3L18675.9,20552.9L18662.7,20708L18625,20747.4L18564.6,20836.8L18554.1,20974.3L18572.5,21080.3L18568.1,21229.3Z" style="fill:rgb(227,72,81);"/>
    <path id="Bideckie3" serif:id="Bideckie" d="M19567,17993.7L19666,17978.8L19789.6,18004.2L20276.7,17995.5L20351.2,18013L20376.6,18081.3L20382.8,18147L20382.8,18198.7L20313.5,18251.3L20305.7,18330.2L20268.9,18383.6L20291.6,18439.7L20264.5,18489.6L20210.1,18498.4L20175.1,18474.7L20165.5,18565L20155.6,18631.5L20045.4,18697.1L19948.2,18708.6L19864.9,18680.6L19799.2,18694.6L19734.4,18752.5L19679.1,18796.7L19636.6,18809.4L19599.8,18791.9L19560,18779.6L19432,18762.7L19368.1,18729.2L19323.8,18674.9L19261.6,18589.9L19254.6,18553.1L19268.6,18513.3L19302.8,18462L19355.4,18445.8L19379.5,18429.2L19402.3,18345.9L19422,18266.2L19436,18133.9L19478.9,18078.7L19567,17993.7Z" style="fill:rgb(227,72,81);"/>
    <path id="Bideckie4" serif:id="Bideckie" d="M22029.2,21148.7L21974,21175L21957.4,21218.8L21954.7,21302L21964.8,21335.7L21995,21351.5L22053.7,21326.1L22084.8,21348.9L22117.7,21355.4L22171.6,21351.9L22207.1,21332.2L22231.2,21304.2L22237.3,21275.3L22264.5,21244.2L22276.7,21216.1L22275.4,21198.6L22300,21164.9L22312.2,21133.3L22306.5,21104.9L22306.5,21076.8L22300.4,21062.8L22271.9,21057.1L22235.1,21063.2L22172.5,21060.2L22135.7,21044L22103.2,21058L22088.4,21118.9L22071.3,21145.6L22055.5,21146L22029.2,21148.7Z" style="fill:rgb(227,72,81);"/>
    <path id="Wyspy-Ilmol-a" serif:id="Wyspy Ilmol&apos;a" d="M22024.8,16663.7L21981.9,16706.6L22009.9,16866.1L22008.2,16951.9L21936.3,17020.3L21822.4,17082.5L21718.2,17213.9L21710.8,17269.7L21605.5,17296.3L21554.7,17344L21533.6,17437L21540.4,17514.4L21599.3,17548.5L21682.9,17595.6L21715.1,17618.5L21710.8,17692.2L21719.5,17758.5L21761.6,17775.2L21809.3,17805.6L21990.2,17805.6L22026.8,17774L22103.6,17754.8L22178,17756.6L22241.2,17777.7L22244.3,17814.9L22212.7,17846.5L22222.6,17931.3L22283.9,17948.1L22341.5,17947.5L22376.8,17985.9L22429.5,18075.1L22498.9,18100.5L22525.6,18140.1L22555.3,18188.4L22611.7,18202.1L22688.5,18192.2L22720.7,18165.5L22721.3,18108.5L22694.1,18067L22736.2,18013.7L22785.8,18015L22899.8,18047.2L22977.9,18037.9L23012.5,18000.1L23014.4,17922.1L22943.2,17865.7L22887.4,17764.7L22863.8,17692.2L22828.5,17585.7L22846.5,17510.1L22858.3,17437.6L22972.9,17437.6L22981,17485.3L23005.7,17531.8L23058.4,17580.1L23149.5,17630.9L23209.6,17630.3L23249.2,17588.1L23280.2,17477.9L23279.6,17347.1L23316.8,17313.8L23354,17278.3L23459.3,17278.3L23459.3,17132.8L23402.9,17132.8L23427.7,17095L23432.6,17008.9L23410.9,16946.3L23375.6,16867.6L23313.1,16834.8L23302.5,16644.6L23310,16557.3L23284,16493.7L23171.8,16412.2L23041.2,16347.4L22959.7,16350.9L22888.8,16307.1L22812.5,16303.6L22746.8,16297.5L22673.6,16350.3L22568.9,16375.7L22481.6,16408L22402.3,16424.1L22316.1,16485.4L22296.3,16559.1L22350.8,16593.8L22404.1,16641.5L22437.6,16717.7L22469.8,16776.6L22459.9,16836L22440,16869.5L22440.7,16891.2L22311.2,16891.2L22265.9,16853.4L22231.2,16802L22168.7,16759.2L22135.2,16699.7L22103,16658.2L22024.8,16663.7Z" style="fill:white;"/>
    <path id="Terytorium-niezależne" serif:id="Terytorium niezależne" d="M4922.34,0L4935.97,75.581L4999.17,120.187L5004.13,231.7L4924.82,278.784L4913.67,332.062L4943.41,412.6L4959.52,495.615L5009.08,504.288L5069.8,594.738L5165.22,604.651L5228.26,660.28L5300.11,651.518L5366.71,687.44L5466.6,673.422L5711.94,652.394L5803.95,648.89L5860.9,595.446L5860.03,506.08L5815.34,451.76L5924.87,407.077L6013.37,329.978L6065.94,256.383L6059.29,157.358L6148.51,133.816L6260.66,120.187L6305.27,66.908L6322.62,0L4922.34,0Z" style="fill:white;"/>
    <path id="Terytorium-niezależne1" serif:id="Terytorium niezależne" d="M10936.1,7859.22L10844.4,7886.48L10787.4,7933.56L10755.2,8015.34L10767.6,8116.94L10799.8,8238.37L10891.5,8375.9L10954.7,8456.44L11017.9,8483.7L11115.8,8430.42L11181.5,8365.99L11186.4,8235.89L11163,8195.89L11162.6,8165.23L11181,8143.76L11165.6,8065.35L11110.4,7961.97L11041.4,7861.7L11008,7843.11L10936.1,7859.22Z" style="fill:white;"/>
    <path id="Terytorium-niezależne2" serif:id="Terytorium niezależne" d="M7910.01,-0L7828.22,131.338L7877.79,343.72L7870.36,463.4L7971.97,594.738L7939.75,703.774L7872.84,810.331L7786.09,790.506L7709.26,849.98L7572.95,852.458L7491.17,949.103L7379.64,1115.13L7337.51,1251.43L7411.86,1333.2L7481.25,1449.67L7763.79,1516.58L7939.75,1459.59L8016.58,1291.08L7967.01,1216.74L8068.63,1063.1L8234.68,998.665L8442.86,1030.88L8589.08,1117.61L8782.4,1127.53L9010.97,1052.79L9138.9,956.412L9107.35,884.569L8993.44,777.681L8811.18,716.352L8665.73,695.325L8472.96,669.041L8395.85,584.932L8460.69,486.805L8451.93,404.449L8551.82,364.147L8572.85,241.488L8572.85,131.096L8493.99,52.244L8371.32,-0L7910.01,-0Z" style="fill:white;"/>
    <path id="Terytorium-niezależne3" serif:id="Terytorium niezależne" d="M1442.71,40.888L1510.87,141.25L1510.87,225.505L1529.45,301.086L1482.36,401.448L1374.56,462.161L1285.33,477.03L1131.67,407.643L1051.13,452.249L996.604,527.83L881.36,561.284L779.746,524.113L623.609,424.99L582.716,339.496L576.52,189.573L617.413,109.035L702.917,29.737L764.876,-0L1377.03,-0L1442.71,40.888Z" style="fill:white;"/>
    <path id="Terytorium-niezależne4" serif:id="Terytorium niezależne" d="M19973.5,5866.85L20065.2,5901.54L20092.5,5956.06L20137.1,6051.47L20098.7,6109.7L20159.4,6206.34L20158.1,6326.53L20163.1,6447.96L20251.1,6556.99L20268.4,6643.73L20258.5,6734.18L20196.6,6797.36L19963.6,6844.45L19816.1,6832.06L19751.7,6768.87L19739.3,6610.27L19755.4,6528.49L19640.2,6415.74L19524.9,6364.94L19455.5,6304.23L19440.7,6171.65L19609.2,6040.31L19678.6,5889.15L19775.2,5844.55L19878.1,5832.15L19973.5,5866.85Z" style="fill:white;"/>
    <path id="Terytorium-niezależne5" serif:id="Terytorium niezależne" d="M27176.9,6606.55L26968.7,6851.88L26758,7052.61L26587,7218.64L26542.4,7384.67L26589.5,7553.18L26753.1,7669.65L26832.4,7791.07L26983.6,7850.55L27152.1,7813.38L27375.2,7662.21L27486.7,7491.23L27742,7295.46L27836.1,7084.82L27833.7,6901.44L27796.5,6775.06L27764.3,6616.47L27590.8,6455.39L27434.6,6410.79L27375.2,6450.44L27295.9,6405.83L27174.4,6462.82L27176.9,6606.55Z" style="fill:white;"/>
    <path id="Terytorium-niezależne6" serif:id="Terytorium niezależne" d="M27678.3,14028.3L27482.1,14245.6L27457.5,14452.4L27369.9,14613.6L27397.9,14872.9L27510.1,15072.7L27667.8,15209.3L27846.6,15216.3L28183,15051.6L28386.3,15128.7L28607.1,15174.3L28887.5,15037.6L29000,15037.6L29000,14133.4L28838.5,14154.5L28663.2,14315.7L28502,14235.1L28428.4,14105.4L28256.6,14063.4L28120,13912.7L27839.6,13944.2L27678.3,14028.3Z" style="fill:white;"/>
    <path id="Terytorium-niezależne7" serif:id="Terytorium niezależne" d="M18929.9,25775.6L19033,25741L19164.3,25754.6L19249.8,25695.7L19510.1,25772.8L19629.2,25858.7L19886.8,26003.2L19942.9,26208.2L20027,26572.7L20139.2,26712.9L20240.8,26744.4L20407.3,26726.9L20598.4,26644.6L20726.3,26637.6L20754.3,26695.4L20759.6,26814.5L20687.7,27098.4L20687.7,27207L20731.5,27282.4L20766.6,27370L20729.8,27447.1L20633.4,27548.7L20549.3,27667.9L20424.9,27736.2L20370.5,27860.6L20325,27918.5L20232.1,27923.7L20158.5,27872.9L20207.5,27680.2L20265.4,27499.7L20246.1,27389.3L20207.5,27250.8L20060.3,27146L19969.8,27040.7L19927.7,26975L19827.3,26992.4L19772.8,26967.6L19622.8,26991.2L19619.1,27072.9L19593.1,27115.1L19599.3,27211.7L19557.1,27258.8L19382.4,27284.8L19262.2,27247.6L19159.4,27241.4L19165.6,27304.6L19133.3,27336.8L19051.7,27385.8L19023.1,27338.1L18927.6,27242.7L18876.8,27086.6L18866.9,26884.6L18983.4,26641.9L19010.6,26463.2L19007.1,26367.7L18976.4,26234.5L18971.2,26054.9L18972.1,25948L18932.6,25822.7L18929.9,25775.6Z" style="fill:white;"/>
    <path id="Terytorium-niezależne8" serif:id="Terytorium niezależne" d="M4626.25,18170.4L4661.38,18287.2L4892.74,18212.7L5295.81,18242.5L5420.23,18149.6L5383.43,17988.4L5436.01,17927L5669.09,17790.4L5651.56,17667.7L5719.91,17587.1L5595.3,17246.1L5496.16,17096.2L5415.61,16834.8L5354.89,16790.2L5252.04,16788.9L5094.28,16873.9L4983.87,17220.9L5106.54,17376.8L5220.45,17450.4L5225.71,17503L5010.16,17692.2L4844.35,17951.1L4680.78,18089.9L4626.25,18170.4Z" style="fill:white;"/>
</svg>
